<?xml version="1.0" standalone="no"?>
<!DOCTYPE svg PUBLIC "-//W3C//DTD SVG 20010904//EN"
 "http://www.w3.org/TR/2001/REC-SVG-20010904/DTD/svg10.dtd">
<svg version="1.0" xmlns="http://www.w3.org/2000/svg"
 width="512.000000pt" height="512.000000pt" viewBox="0 0 512.000000 512.000000"
 preserveAspectRatio="xMidYMid meet">

<g transform="translate(0.000000,512.000000) scale(0.100000,-0.100000)"
fill="#000000" stroke="none">
<path d="M2130 5095 c-54 -10 -80 -20 -92 -36 -26 -30 -22 -71 7 -99 25 -23
25 -23 125 -10 119 15 144 29 144 85 0 27 -6 43 -23 56 -27 22 -57 22 -161 4z"/>
<path d="M2790 5090 c-25 -25 -26 -71 -2 -99 13 -17 38 -25 117 -36 95 -14
101 -14 125 3 18 14 26 30 28 60 4 50 -15 65 -102 81 -92 17 -143 14 -166 -9z"/>
<path d="M3515 4895 c-32 -31 -33 -75 -2 -102 34 -32 182 -94 203 -87 51 18
71 77 42 117 -17 21 -171 97 -198 97 -12 0 -32 -11 -45 -25z"/>
<path d="M1422 4865 c-69 -35 -92 -51 -100 -73 -17 -50 17 -101 68 -101 38 0
182 80 199 110 19 34 1 81 -35 98 -35 15 -32 16 -132 -34z"/>
<path d="M4163 4510 c-12 -5 -26 -18 -32 -29 -23 -42 -13 -67 55 -132 36 -35
76 -70 89 -76 45 -24 105 18 105 73 0 20 -116 141 -152 160 -31 16 -35 16 -65
4z"/>
<path d="M834 4462 c-92 -74 -116 -105 -112 -147 4 -46 43 -81 80 -71 12 3 56
37 96 74 63 60 72 73 72 104 0 39 -20 63 -61 73 -20 5 -36 -2 -75 -33z"/>
<path d="M2487 4286 c-129 -48 -208 -174 -191 -305 l6 -46 -127 -55 c-127 -55
-155 -76 -155 -116 0 -34 37 -74 69 -74 16 0 87 27 160 59 l131 60 52 -32 c48
-30 57 -32 143 -32 86 0 95 2 143 32 l51 31 441 -196 441 -196 -3 -44 -3 -44
-422 -188 c-409 -182 -423 -187 -439 -169 -9 11 -44 32 -77 49 -102 51 -220
37 -306 -36 l-41 -36 -445 198 -445 197 0 31 c0 31 3 32 181 111 100 43 192
88 205 98 50 39 14 128 -50 126 -11 0 -104 -37 -206 -83 l-185 -83 -37 33
c-57 50 -96 67 -176 72 -66 4 -78 2 -138 -28 -103 -50 -152 -131 -153 -250 -1
-128 88 -244 212 -274 l27 -6 0 -543 0 -543 -44 -12 c-58 -15 -124 -67 -161
-127 -25 -41 -31 -61 -33 -125 -5 -100 20 -162 90 -225 109 -98 266 -96 380 4
l36 31 438 -195 439 -195 2 -54 c2 -95 56 -183 140 -233 64 -37 180 -44 245
-15 102 45 170 144 172 249 l1 53 150 66 c83 36 158 74 168 86 38 45 7 118
-52 118 -16 0 -95 -29 -175 -65 l-147 -66 -39 31 c-21 17 -54 37 -74 45 l-36
15 0 410 0 409 113 -50 c61 -28 287 -128 500 -222 l388 -172 -3 -44 -3 -45
-140 -63 c-77 -35 -146 -71 -152 -80 -20 -26 -16 -77 7 -98 32 -29 66 -22 213
44 l138 61 42 -35 c165 -141 431 -30 454 190 12 112 -54 228 -158 281 l-49 24
0 548 0 548 41 18 c168 74 221 297 104 434 -55 64 -114 94 -194 100 -80 5
-122 -6 -193 -54 -39 -26 -56 -33 -73 -27 -12 4 -204 89 -427 188 l-404 180 0
75 c0 118 -48 202 -145 254 -63 35 -162 44 -222 22z m170 -167 c93 -87 42
-229 -82 -229 -55 0 -94 25 -116 76 -31 68 -7 130 66 173 31 18 102 7 132 -20z
m-1396 -642 c67 -45 75 -139 18 -196 -54 -55 -129 -53 -186 4 -29 29 -33 39
-33 85 0 47 4 56 39 91 33 34 45 39 83 39 30 0 56 -8 79 -23z m2740 0 c92 -62
63 -212 -44 -232 -52 -10 -85 1 -124 40 -29 29 -33 39 -33 85 0 47 4 56 39 91
33 34 45 39 83 39 30 0 56 -8 79 -23z m-2131 -475 l425 -189 8 -62 c13 -105
67 -188 151 -229 l46 -23 0 -64 0 -63 -542 -241 -542 -241 -36 34 c-19 18 -45
39 -57 45 l-23 12 0 567 0 567 34 19 c19 10 45 29 57 42 13 14 30 22 38 19 9
-3 207 -90 441 -193z m1874 159 c15 -16 45 -37 67 -46 l39 -18 0 -552 0 -551
-33 -12 c-19 -7 -51 -27 -72 -45 l-38 -33 -529 234 -528 235 0 61 0 61 45 18
c96 40 165 142 167 246 l1 57 416 186 c229 102 421 186 427 187 5 1 23 -12 38
-28z m-1067 -305 c28 -30 33 -43 33 -86 0 -43 -5 -56 -33 -86 -63 -69 -172
-53 -211 30 -20 42 -20 67 -2 111 22 51 69 77 130 72 42 -4 55 -10 83 -41z
m-177 -1056 l0 -410 -36 -15 c-20 -8 -53 -28 -74 -45 l-39 -31 -438 195 -438
195 0 32 0 31 510 228 c281 125 511 228 513 229 1 1 2 -183 2 -409z m-1231 25
c62 -53 65 -142 6 -194 -44 -39 -76 -47 -125 -32 -56 16 -90 62 -90 117 0 87
45 133 132 134 36 0 54 -6 77 -25z m2746 -8 c19 -19 37 -46 41 -60 25 -102
-76 -193 -174 -155 -74 28 -106 127 -63 192 27 40 57 55 115 56 41 0 53 -5 81
-33z m-1374 -590 c113 -75 68 -237 -66 -237 -75 0 -128 52 -128 126 0 50 22
87 66 114 42 26 86 25 128 -3z"/>
<path d="M4650 3937 c-14 -7 -31 -25 -40 -40 -14 -26 -13 -31 25 -103 53 -100
75 -124 118 -124 37 0 62 21 72 60 4 19 -6 46 -43 110 -54 94 -88 119 -132 97z"/>
<path d="M378 3900 c-14 -10 -44 -57 -68 -103 -41 -82 -42 -85 -26 -114 22
-43 72 -57 106 -30 31 24 103 161 104 196 0 62 -66 91 -116 51z"/>
<path d="M4932 3244 c-41 -28 -44 -46 -22 -146 16 -71 26 -98 46 -115 41 -37
85 -27 113 24 9 19 8 41 -9 115 -29 124 -69 163 -128 122z"/>
<path d="M95 3207 c-21 -18 -30 -41 -46 -115 -17 -83 -17 -96 -4 -121 24 -47
69 -55 108 -18 18 15 30 44 41 96 23 106 21 135 -10 160 -34 27 -57 26 -89 -2z"/>
<path d="M4991 2614 c-18 -23 -21 -41 -21 -130 0 -99 1 -103 26 -123 35 -27
57 -26 91 3 27 23 28 29 31 123 3 88 2 101 -18 126 -29 37 -80 38 -109 1z"/>
<path d="M21 2454 c-23 -29 -25 -54 -11 -159 7 -57 14 -74 36 -93 30 -26 64
-24 98 6 17 15 18 27 12 117 -7 118 -23 148 -78 153 -29 2 -40 -2 -57 -24z"/>
<path d="M4888 1888 c-19 -14 -78 -173 -78 -208 0 -28 43 -70 72 -70 45 0 66
27 99 130 l33 100 -20 27 c-24 32 -78 42 -106 21z"/>
<path d="M180 1725 c-29 -31 -24 -65 24 -169 26 -56 42 -79 61 -86 34 -13 73
5 94 41 14 25 12 33 -23 117 -21 50 -46 98 -55 107 -27 23 -74 19 -101 -10z"/>
<path d="M4561 1213 c-37 -32 -121 -157 -121 -181 0 -30 42 -72 72 -72 35 0
64 24 118 102 55 78 60 102 29 142 -24 31 -67 35 -98 9z"/>
<path d="M552 1077 c-41 -44 -21 -91 85 -204 47 -50 111 -42 131 16 13 37 0
64 -74 148 -47 53 -61 63 -88 63 -21 0 -40 -8 -54 -23z"/>
<path d="M4070 683 c-21 -8 -131 -92 -152 -115 -40 -45 -6 -118 54 -118 37 0
172 96 190 135 14 32 -5 78 -38 94 -27 12 -31 12 -54 4z"/>
<path d="M1107 578 c-26 -21 -37 -61 -24 -89 15 -31 163 -129 194 -129 31 0
73 42 73 72 0 37 -24 62 -104 112 -76 47 -110 55 -139 34z"/>
<path d="M3345 288 c-44 -16 -88 -37 -97 -45 -41 -37 -7 -123 47 -123 23 0
149 41 184 59 50 27 51 100 1 126 -37 19 -40 19 -135 -17z"/>
<path d="M1793 260 c-44 -18 -58 -85 -24 -119 22 -22 114 -52 182 -59 38 -3
51 0 68 17 26 26 27 71 4 99 -15 17 -81 40 -193 67 -8 2 -25 0 -37 -5z"/>
<path d="M2543 153 c-50 -10 -70 -86 -33 -123 17 -17 33 -20 124 -20 124 0
150 13 150 75 0 60 -27 75 -133 74 -47 -1 -96 -4 -108 -6z"/>
</g>
</svg>
