<svg width="1002" height="882" viewBox="0 0 1002 882" fill="none" xmlns="http://www.w3.org/2000/svg">
<path d="M106 393V271.363C106 269.24 106.844 267.205 108.346 265.704L186.78 187.341C188.28 185.842 190.313 185 192.434 185H337.566C339.687 185 341.72 185.842 343.22 187.341L421.654 265.704C423.156 267.205 424 269.24 424 271.363V393" stroke="#D3D3D3" stroke-width="8" stroke-linecap="round"/>
<path d="M342 184.741V90.3561C342 88.2374 342.84 86.2053 344.337 84.7056L422.517 6.34951C424.017 4.84533 426.055 4 428.18 4H572.82C574.945 4 576.983 4.84533 578.483 6.34952L656.663 84.7056C658.16 86.2053 659 88.2374 659 90.3561V186.5" stroke="#D3D3D3" stroke-width="8" stroke-linecap="round"/>
<path d="M578 393V271.363C578 269.24 578.844 267.205 580.346 265.704L658.78 187.341C660.28 185.842 662.313 185 664.434 185H809.566C811.687 185 813.72 185.842 815.22 187.341L893.654 265.704C895.156 267.205 896 269.24 896 271.363V393" stroke="#D3D3D3" stroke-width="8" stroke-linecap="round"/>
<path d="M341 577.741V483.356C341 481.237 341.84 479.205 343.337 477.706L423.861 397M578 400.048L655.657 477.704C657.157 479.205 658 481.24 658 483.361V579.5" stroke="#D3D3D3" stroke-width="8" stroke-linecap="round"/>
<path d="M895 398L975.524 478.706C977.021 480.205 977.861 482.237 977.861 484.356V580.5" stroke="#D3D3D3" stroke-width="8" stroke-linecap="round"/>
<path d="M24 578.741V484.356C24 482.237 24.8404 480.205 26.3368 478.706L106.861 398" stroke="#D3D3D3" stroke-width="8" stroke-linecap="round"/>
<line x1="574" y1="398" x2="582" y2="398" stroke="#D3D3D3" stroke-width="8"/>
<line x1="420" y1="398" x2="428" y2="398" stroke="#D3D3D3" stroke-width="8"/>
<line x1="892" y1="398" x2="900" y2="398" stroke="#D3D3D3" stroke-width="8"/>
<line x1="102" y1="397" x2="110" y2="397" stroke="#D3D3D3" stroke-width="8"/>
<path d="M345 577L345 573L337 573L337 577L345 577ZM341 836.667C329.218 836.667 319.667 846.218 319.667 858C319.667 869.782 329.218 879.333 341 879.333C352.782 879.333 362.333 869.782 362.333 858C362.333 846.218 352.782 836.667 341 836.667ZM337 577L337 858L345 858L345 577L337 577Z" fill="#D3D3D3"/>
<path d="M662 579C662 576.791 660.209 575 658 575C655.791 575 654 576.791 654 579L662 579ZM658 838.667C646.218 838.667 636.667 848.218 636.667 860C636.667 871.782 646.218 881.333 658 881.333C669.782 881.333 679.333 871.782 679.333 860C679.333 848.218 669.782 838.667 658 838.667ZM654 579L654 860L662 860L662 579L654 579Z" fill="#D3D3D3"/>
<path d="M982 581C982 578.791 980.209 577 978 577C975.791 577 974 578.791 974 581L982 581ZM974 822L954.906 862L1001.09 862L982 822L974 822ZM974 581L974 826L982 826L982 581L974 581Z" fill="#D3D3D3"/>
<path d="M28 580C28 577.791 26.2091 576 24 576C21.7909 576 20 577.791 20 580L28 580ZM20 821L0.905977 861L47.094 861L28 821L20 821ZM20 580L20 825L28 825L28 580L20 580Z" fill="#D3D3D3"/>
</svg>
