<svg version="1.0" xmlns="http://www.w3.org/2000/svg"
 width="512.000000pt" height="512.000000pt" viewBox="0 0 512.000000 512.000000"
 preserveAspectRatio="xMidYMid meet">

<g transform="translate(0.000000,512.000000) scale(0.100000,-0.100000)"
fill="#000000" stroke="none">
<path d="M812 5104 c-413 -75 -725 -390 -797 -803 -23 -129 -23 -3353 0 -3482
73 -417 387 -731 804 -804 72 -12 224 -15 928 -15 l843 0 32 29 33 29 3 413
c3 434 1 455 -42 484 -24 17 -79 20 -107 5 -46 -25 -49 -47 -49 -415 l0 -346
-807 3 c-805 3 -808 4 -881 26 -269 83 -467 282 -544 549 l-23 78 0 1705 0
1705 23 78 c78 269 280 471 549 549 l78 23 1705 0 1705 0 78 -23 c269 -78 471
-280 549 -549 l23 -78 0 -1705 0 -1705 -23 -78 c-77 -267 -276 -468 -544 -549
-69 -21 -95 -22 -460 -26 l-388 -3 0 880 0 880 303 3 c272 3 306 5 330 21 16
10 32 29 37 41 5 13 25 191 46 394 41 412 41 417 -21 446 -28 14 -84 16 -364
16 l-331 0 0 209 c0 191 2 211 19 232 l19 24 326 5 326 5 27 28 28 27 3 358
c2 196 1 371 -3 388 -3 18 -17 44 -32 58 l-27 27 -490 -4 c-541 -4 -549 -4
-709 -70 -107 -43 -195 -103 -277 -187 -104 -107 -181 -256 -221 -426 -18 -76
-22 -132 -26 -381 l-5 -293 -237 0 c-266 0 -303 -6 -331 -53 -19 -30 -20 -53
-20 -407 0 -354 1 -377 20 -407 28 -47 65 -53 333 -53 l237 0 0 -155 0 -155
28 -30 c17 -19 40 -33 63 -36 31 -5 42 -1 70 24 l34 30 3 224 c4 322 20 308
-350 308 l-238 0 0 250 0 250 238 0 c267 0 304 6 332 53 19 30 20 53 20 342 0
319 8 413 46 530 68 208 216 350 434 416 72 22 93 23 493 27 l417 3 0 -245 0
-245 -272 -3 c-252 -3 -276 -5 -318 -24 -57 -26 -106 -76 -134 -134 -20 -42
-21 -64 -24 -335 -3 -256 -2 -294 13 -321 9 -18 28 -37 41 -43 17 -7 133 -11
354 -11 182 0 330 -3 330 -7 0 -5 -11 -118 -25 -253 -14 -135 -25 -246 -25
-247 0 -2 -129 -3 -287 -3 -171 0 -303 -4 -326 -11 -26 -7 -44 -21 -57 -42
-19 -31 -20 -59 -20 -1039 l0 -1008 29 -32 29 -33 424 -3 c344 -2 440 0 513
12 421 71 737 386 810 805 23 129 23 3353 0 3482 -73 417 -387 731 -804 804
-74 13 -311 15 -1751 14 -1345 -1 -1679 -4 -1738 -15z"/>
<path d="M524 4075 c-43 -30 -45 -49 -42 -513 l3 -442 26 -25 c14 -14 42 -28
62 -32 32 -5 41 -1 72 30 l35 35 0 441 c0 472 -1 485 -49 511 -28 15 -83 12
-107 -5z"/>
<path d="M550 2819 c-61 -24 -84 -82 -56 -137 54 -105 216 -37 179 74 -16 49
-78 80 -123 63z"/>
<path d="M2530 1359 c-61 -24 -84 -82 -56 -137 54 -105 216 -37 179 74 -16 49
-78 80 -123 63z"/>
</g>
</svg>
