<?xml version="1.0" standalone="no"?>
<!DOCTYPE svg PUBLIC "-//W3C//DTD SVG 20010904//EN"
 "http://www.w3.org/TR/2001/REC-SVG-20010904/DTD/svg10.dtd">
<svg version="1.0" xmlns="http://www.w3.org/2000/svg"
 width="512.000000pt" height="512.000000pt" viewBox="0 0 512.000000 512.000000"
 preserveAspectRatio="xMidYMid meet">

<g transform="translate(0.000000,512.000000) scale(0.100000,-0.100000)"
fill="#000000" stroke="none">
<path d="M772 4800 c-223 -59 -395 -232 -452 -456 -19 -75 -20 -116 -20 -1391
l0 -1313 60 0 60 0 0 1308 c0 1436 -3 1357 61 1484 40 79 128 167 207 207 128
64 42 61 1544 61 l1368 0 0 60 0 60 -1377 -1 c-1323 0 -1381 -1 -1451 -19z"/>
<path d="M3680 4760 l0 -60 288 0 c223 0 301 -3 345 -15 185 -48 324 -187 372
-372 23 -86 23 -3420 0 -3506 -48 -185 -187 -324 -372 -372 -86 -23 -3420 -23
-3506 0 -185 48 -324 187 -372 372 -11 43 -15 118 -15 305 l0 248 -60 0 -60 0
0 -253 c0 -220 3 -264 20 -331 57 -225 231 -399 456 -456 76 -20 114 -20 1784
-20 1666 0 1709 0 1784 20 225 57 399 231 456 456 20 76 20 114 20 1784 0
1670 0 1708 -20 1784 -57 225 -231 399 -456 456 -68 18 -111 20 -371 20 l-293
0 0 -60z"/>
<path d="M1460 3950 c-192 -40 -326 -236 -291 -425 15 -82 47 -142 106 -200
147 -148 372 -148 520 0 166 165 142 433 -51 565 -80 56 -191 79 -284 60z
m143 -124 c203 -61 248 -321 76 -446 -144 -104 -353 -21 -389 156 -27 129 52
256 179 290 61 17 79 17 134 0z"/>
<path d="M1203 3060 c-12 -5 -26 -18 -32 -29 -8 -13 -11 -302 -11 -921 l0
-901 25 -24 24 -25 326 0 326 0 24 25 25 24 0 904 c0 876 -1 906 -19 928 l-19
24 -324 2 c-177 1 -333 -2 -345 -7z m585 -947 l2 -833 -255 0 -255 0 0 828 c0
456 3 832 7 836 4 3 117 5 252 4 l246 -3 3 -832z"/>
<path d="M2183 3060 c-12 -5 -26 -18 -32 -29 -8 -13 -11 -302 -11 -921 l0
-901 25 -24 24 -25 273 0 c231 0 277 2 296 16 l22 15 0 482 c1 609 10 687 91
768 91 91 300 80 367 -20 55 -84 56 -93 62 -679 l5 -544 24 -19 c22 -18 42
-19 303 -19 l279 0 24 25 25 24 0 523 c-1 711 -13 843 -97 1018 -72 150 -220
257 -408 295 -109 23 -325 22 -425 0 -76 -17 -232 -83 -244 -104 -15 -24 -26
-9 -26 37 0 90 -6 92 -307 91 -136 0 -258 -4 -270 -9z m457 -212 c0 -116 10
-138 66 -138 29 0 39 8 73 54 43 58 70 80 140 116 106 53 255 75 414 60 224
-22 352 -98 427 -255 68 -143 80 -275 80 -912 l0 -493 -210 0 -210 0 0 474 c0
373 -3 490 -15 550 -45 236 -180 338 -415 315 -156 -16 -255 -108 -306 -284
-15 -52 -18 -123 -22 -558 l-3 -497 -197 2 -197 3 -3 820 c-1 451 0 826 3 833
3 9 51 12 190 12 l185 0 0 -102z"/>
<path d="M300 1500 l0 -60 60 0 60 0 0 60 0 60 -60 0 -60 0 0 -60z"/>
</g>
</svg>
