<svg width="499" height="267" viewBox="0 0 499 267" fill="none" xmlns="http://www.w3.org/2000/svg">
<path d="M208 186L208.824 181.878C208.939 181.306 209.22 180.78 209.633 180.367L209.859 180.141C210.27 179.73 210.826 179.5 211.406 179.5V179.5C212.095 179.5 212.743 179.824 213.156 180.375L215.132 183.009C215.376 183.335 215.569 183.695 215.704 184.078L218.5 192" stroke="black" stroke-linecap="round"/>
<path d="M73 163.5L76.2322 157.036C76.3963 156.707 76.7318 156.5 77.0987 156.5V156.5C77.3557 156.5 77.6021 156.602 77.7837 156.784L78.3071 157.307C78.4354 157.435 78.576 157.551 78.727 157.651L81.5 159.5M81 158.5L84.2217 152.517C84.4062 152.174 84.6398 151.86 84.9151 151.585L85.5941 150.906C85.861 150.639 86.1864 150.438 86.5445 150.318V150.318C87.1563 150.115 87.824 150.162 88.4008 150.45L89.1439 150.822C89.3798 150.94 89.5951 151.095 89.7815 151.281L90.1227 151.623C90.3643 151.864 90.5 152.192 90.5 152.534V152.534C90.5 152.835 90.3943 153.127 90.2014 153.358L88 156M91 153L91.5645 152.859C92.4908 152.627 93.4694 152.735 94.3235 153.162L95 153.5" stroke="black" stroke-linecap="round"/>
<path d="M117 116C117 114.167 117.9 109.9 121.5 107.5M120.5 123C122.167 122 125.8 118.8 127 114" stroke="black" stroke-linecap="round"/>
<path d="M1 90C3.79255 89.3429 10.7946 91.0497 16.7402 102.971C16.9127 103.317 17.1323 103.645 17.3929 103.93L27.4152 114.907C27.4713 114.969 27.5381 115.019 27.6125 115.056V115.056C28.0391 115.27 28.5467 114.987 28.5898 114.512L29 110" stroke="black" stroke-linecap="round"/>
<path d="M363.5 48L367.101 42.3985C367.525 41.7386 368.487 41.7306 368.922 42.3834V42.3834C368.974 42.4608 369.035 42.5313 369.105 42.5931L372.363 45.4896C373.096 46.1405 374.041 46.5 375.021 46.5H375.789C376.579 46.5 377.351 46.2662 378.008 45.8282L379.637 44.7418C379.878 44.5811 380.136 44.447 380.406 44.342L389 41" stroke="black" stroke-linecap="round"/>
<path d="M414 210L420.799 218.499C421.558 219.448 422.707 220 423.922 220H424.362C425.963 220 427.409 220.954 428.039 222.424L428.301 223.037C428.433 223.344 428.603 223.634 428.807 223.9L433.5 230L436.5 233L439.5 235.5L439.91 235.91C440.612 236.612 441.027 237.548 441.077 238.539L441.452 246.045C441.484 246.673 441.662 247.284 441.974 247.83L443.282 250.119C443.427 250.372 443.599 250.609 443.795 250.825L447.31 254.691C448.068 255.525 449.142 256 450.269 256H464.399C464.797 256 465.194 256.06 465.575 256.177L478 260L484.614 262.334C485.801 262.753 487.117 262.589 488.164 261.891L490.06 260.626C490.675 260.217 491.164 259.645 491.473 258.975L497 247M462 117L462.855 113.579C463.246 112.017 464.536 110.841 466.128 110.596L470 110M470 110H473C475.209 110 477 111.791 477 114V116.44C477 116.811 476.948 117.181 476.846 117.539L476.827 117.605C476.337 119.319 477.041 121.151 478.553 122.096L484 125.5M470 110V114.44C470 114.811 470.052 115.181 470.154 115.539L472 122L472.511 123.703C473.079 125.598 474.949 126.793 476.908 126.513L484 125.5M484 125.5L497 131" stroke="black" stroke-linecap="round"/>
<path d="M497 161L494.678 160.42C493.607 160.152 492.473 160.339 491.545 160.935L487.385 163.61C486.498 164.18 485.872 165.077 485.643 166.107L485.146 168.345C485.051 168.772 485.087 169.217 485.249 169.623V169.623C485.672 170.681 486.841 171.233 487.926 170.887L497 168M486 218.5L488.138 224.058C488.375 224.676 488.767 225.222 489.275 225.646L490.641 226.784C491.151 227.209 491.878 227.248 492.43 226.88V226.88C492.792 226.639 493.031 226.252 493.085 225.82L493.5 222.5V220.734C493.5 219.944 493.186 219.186 492.627 218.627V218.627C491.923 217.923 490.913 217.617 489.937 217.813L486.5 218.5M451 141.5L456.702 138.868C457.228 138.626 457.8 138.5 458.379 138.5H468H472.203C473.625 138.5 474.941 137.744 475.658 136.515L477.134 133.985C477.687 133.037 478.605 132.358 479.673 132.106L484.553 130.958C485.547 130.724 486.5 131.479 486.5 132.5V132.5V132.5C486.265 134.383 488.043 135.887 489.861 135.342L496 133.5M449 129.5L452.724 127.845C453.236 127.617 453.789 127.5 454.349 127.5H458C459.259 127.5 460.445 128.093 461.2 129.1L461.348 129.297C461.449 129.432 461.56 129.56 461.68 129.68V129.68C462.767 130.767 464.428 131.036 465.803 130.349L473.5 126.5" stroke="black" stroke-linecap="round"/>
<path d="M300 193.5L293 189.5L284.924 186.039C283.454 185.409 282.5 183.963 282.5 182.362V180.416C282.5 177.725 279.896 175.801 277.324 176.593L276.728 176.776C276.247 176.924 275.798 177.161 275.405 177.476L271.42 180.664C269.777 181.979 267.395 181.795 265.973 180.243L264.051 178.147C263.375 177.409 263 176.445 263 175.444V165.5" stroke="black" stroke-linecap="round"/>
<path d="M226.5 199L238.835 199.474C239.275 199.491 239.715 199.435 240.138 199.309L243.534 198.29C244.168 198.1 244.745 197.755 245.213 197.287L247 195.5M255 195.5L249.4 194.7C248.519 194.574 247.63 194.87 247 195.5V195.5M255 195.5L263.594 197.887C263.864 197.962 264.141 198.009 264.42 198.026L287.398 199.433C288.119 199.477 288.839 199.325 289.48 198.993L302.136 192.447C302.704 192.153 303.334 192 303.973 192H307.914C309.488 192 310.915 192.923 311.561 194.359L314.775 201.501C314.924 201.832 315.118 202.141 315.35 202.42L318.801 206.561C319.561 207.473 320.686 208 321.873 208H360.289C361.079 208 361.851 207.766 362.508 207.328L366.93 204.38C367.307 204.129 367.639 203.815 367.911 203.452L368.2 203.067C368.719 202.374 369 201.532 369 200.667V192M255 195.5V195.5C257.071 195.04 257.938 192.563 256.606 190.912L247 179M228.5 186C229.7 186.4 241.333 192.5 247 195.5" stroke="black" stroke-linecap="round"/>
<path d="M81 170L84.1026 173.413C85.2403 174.664 85.468 176.496 84.6712 177.988L62.9545 218.649C62.7283 219.073 62.1573 219.157 61.8178 218.818V218.818C61.6235 218.624 61.5577 218.335 61.6485 218.076L72 188.5L76.5 178.5L79.5 173L81 170.5" stroke="black" stroke-linecap="round"/>
<path d="M201 163.5L220.425 235.722C220.475 235.905 220.563 236.075 220.684 236.221L221.079 236.695C221.73 237.476 223 237.016 223 236V236L218.083 185.847C218.028 185.289 218.092 184.725 218.269 184.192L222 173" stroke="black" stroke-linecap="round"/>
<path d="M173.5 138L173.125 140.251C173.042 140.746 172.867 141.221 172.609 141.651L170.187 145.688C170.063 145.895 169.957 146.114 169.872 146.341L164 162L163.823 162.354C163.301 163.399 162.348 164.163 161.215 164.446L159.478 164.881C159.16 164.96 158.835 165 158.508 165H148L136.037 166.38C135.502 166.442 135.16 166.98 135.33 167.49V167.49C135.434 167.802 135.708 168.025 136.033 168.064L148 169.5L162 170.5H163.556C164.177 170.5 164.789 170.355 165.345 170.078L166.307 169.596C167.082 169.209 167.709 168.582 168.096 167.807L176 152L179.386 142.325C179.462 142.109 179.519 141.887 179.557 141.661L180.083 138.5M180.5 136L180.083 138.5M168 169L172.555 171.278C173.418 171.709 174.46 171.54 175.142 170.858V170.858C175.378 170.622 175.558 170.337 175.669 170.023L180.731 155.757C180.909 155.257 180.985 154.727 180.955 154.198L180.083 138.5" stroke="black" stroke-linecap="round"/>
<path d="M142 127C141.5 127.5 138.5 128.5 137.5 129.5C136.7 130.3 133.833 134.833 132.5 137" stroke="black" stroke-linecap="round"/>
<path d="M148 133.5L150.153 133.859C150.711 133.952 151.243 134.162 151.714 134.476L152.5 135L153.67 135.78C153.89 135.926 154.094 136.094 154.28 136.28L155 137M148 130.5C147.71 130.5 146.699 130.5 145.849 130.5C145.289 130.5 144.736 130.617 144.224 130.845L141.698 131.968C140.92 132.313 140.272 132.899 139.85 133.638L138.774 135.521C138.592 135.839 138.455 136.18 138.366 136.535L137.619 139.522C137.54 139.84 137.5 140.165 137.5 140.492V141.597C137.5 142.505 137.809 143.386 138.377 144.096L139.5 145.5L140.451 146.927C141.115 147.923 142.19 148.569 143.381 148.688L146.017 148.952C146.338 148.984 146.661 148.977 146.981 148.931L148.68 148.689C149.537 148.566 150.331 148.169 150.943 147.557L152.5 146L156.82 140.72C156.94 140.574 157.049 140.418 157.147 140.256V140.256C157.965 138.892 157.876 137.168 156.922 135.895L155.78 134.374C155.594 134.125 155.38 133.9 155.141 133.701L153.203 132.086C152.74 131.7 152.197 131.423 151.612 131.281C150.202 130.938 148.324 130.5 148 130.5Z" stroke="black" stroke-linecap="round"/>
<path d="M307 45L311.635 45.4635C311.878 45.4878 312.122 45.4898 312.365 45.4696L317.677 45.0269C317.892 45.009 318.105 44.9737 318.315 44.9213L324 43.5" stroke="black" stroke-linecap="round"/>
<path d="M253.5 43L257.577 39.8289C257.858 39.6106 258.108 39.3559 258.321 39.0715L258.7 38.5667C259.219 37.8743 259.5 37.0321 259.5 36.1667V19.5V14.321C259.5 13.7793 259.39 13.2433 259.177 12.7454L258.214 10.4991C258.072 10.1679 257.886 9.85737 257.661 9.57599L254.477 5.5957C254.162 5.20211 253.775 4.87158 253.338 4.62151L247 1" stroke="black" stroke-linecap="round"/>
<path d="M151.5 75V87M151.5 87C151.333 89.1667 152 93.8 156 95C160 96.2 162 92.5 162.5 90.5L163.5 86.5M151.5 87C152.833 84.3333 157.1 80.5 163.5 86.5M163.5 86.5V76" stroke="black" stroke-linecap="round"/>
<path d="M295.5 93.5L321.549 105.077C322.173 105.354 322.715 105.787 323.124 106.333L327 111.5L335.571 120.547C335.855 120.847 336.184 121.101 336.547 121.301L345.485 126.217C345.827 126.405 346.194 126.541 346.575 126.623L359.433 129.379C359.809 129.459 360.195 129.485 360.578 129.456L373 128.5L390.898 127.533C391.297 127.511 391.691 127.43 392.065 127.292L398.903 124.773C400.206 124.292 401.665 124.523 402.757 125.381L408 129.5L417.095 137.159C417.364 137.385 417.661 137.575 417.98 137.724L423.459 140.281C424.444 140.74 425.573 140.78 426.587 140.39L431.5 138.5M430 140L429.11 143.561C429.037 143.853 429 144.152 429 144.453V144.453C429 145.985 429.951 147.356 431.385 147.894L433 148.5L433.44 148.72C434.435 149.217 435.592 149.278 436.633 148.888L437.596 148.527C438.501 148.187 439.499 148.187 440.404 148.527L440.78 148.668C442.149 149.181 443.129 150.4 443.335 151.847L443.468 152.779C443.489 152.926 443.524 153.071 443.571 153.212V153.212C443.838 154.014 444.497 154.624 445.318 154.829L450 156" stroke="black" stroke-linecap="round"/>
<path d="M149 1C148.833 16.5 148.6 47.4 149 47C149.4 46.6 150.167 45.5 150.5 45L151.126 43.7484C151.373 43.2548 151.719 42.8176 152.143 42.4643L153.576 41.2699C154.179 40.7677 154.916 40.4538 155.695 40.3672L158.531 40.0521C158.842 40.0175 159.157 40.0197 159.469 40.0586L162.607 40.4509C162.868 40.4835 163.126 40.542 163.376 40.6253L164.5 41L167.903 42.2762C168.299 42.4245 168.668 42.6344 168.998 42.8981L170.603 44.1828C170.867 44.3934 171.102 44.6365 171.305 44.9062L171.7 45.4333C172.219 46.1257 172.5 46.9679 172.5 47.8333V49.5V51M179.5 1L174.5 44L173.54 50.7186C173.513 50.906 173.5 51.095 173.5 51.2843V64.8509C173.5 65.2808 173.431 65.7079 173.295 66.1158L172.726 67.8232C172.576 68.2709 172.349 68.6886 172.054 69.0571L169.159 72.6765C168.727 73.2163 168.163 73.6349 167.521 73.8917L166.341 74.3636C166.114 74.4543 165.879 74.5241 165.64 74.572L163.888 74.9223C163.63 74.974 163.367 75 163.104 75H158L153.58 74.5982C152.873 74.5339 152.195 74.2824 151.617 73.8696L149.269 72.1924C149.09 72.0644 148.922 71.9217 148.766 71.7659L146.701 69.701C146.567 69.5672 146.443 69.424 146.329 69.2726L145.85 68.6329C145.3 67.8999 145.019 67.0004 145.052 66.0848L145.468 54.8658C145.489 54.2952 145.632 53.7358 145.887 53.225L146.31 52.379C146.436 52.127 146.589 51.8891 146.765 51.6691L148.5 49.5L149.5 48.5L150.266 47.7341C150.422 47.5783 150.59 47.4356 150.769 47.3076L153.608 45.28C153.868 45.094 154.15 44.9399 154.447 44.8211L156.159 44.1364C156.386 44.0457 156.621 43.9759 156.86 43.928L158.363 43.6273C158.785 43.543 159.217 43.5272 159.644 43.5805L162.607 43.9509C162.868 43.9835 163.126 44.042 163.376 44.1253L163.823 44.2744C164.271 44.4236 164.689 44.6509 165.057 44.9457L167 46.5L169.152 48.6518C169.383 48.8831 169.585 49.1418 169.753 49.4222L170.747 51.0778C170.915 51.3582 171.117 51.6169 171.348 51.8482L172.5 53M156.5 50L154.298 50.881C154.1 50.9602 153.908 51.0551 153.725 51.1649L152.396 51.9622C151.809 52.3148 151.321 52.8125 150.981 53.4076L149.707 55.6376C149.575 55.8682 149.548 56.144 149.632 56.396V56.396C149.821 56.9625 150.486 57.2085 150.998 56.9013L152.195 56.183C152.397 56.0619 152.618 55.9764 152.849 55.9302L154.612 55.5777C154.87 55.526 155.133 55.5 155.396 55.5H156.169C156.389 55.5 156.609 55.5182 156.827 55.5544L159.5 56L162.4 56.8285C162.797 56.9421 163.175 57.1168 163.52 57.3464L165.67 58.7803C165.89 58.9264 166.094 59.0938 166.28 59.2801L167.5 60.5L169 62L169.459 62.4594C169.782 62.7823 170.275 62.8623 170.684 62.6581V62.6581C170.889 62.5555 171.055 62.389 171.158 62.1838L171.293 61.9146C171.429 61.6419 171.5 61.3413 171.5 61.0365V60.5V60.5C171.5 60.1688 171.447 59.8398 171.342 59.5257L171.125 58.8758C171.042 58.6259 170.934 58.3848 170.803 58.1561L169 55L168.067 53.7554C167.694 53.2586 167.211 52.8554 166.655 52.5777L165.5 52L162 50.5L159.53 49.7943C158.855 49.6015 158.142 49.5896 157.461 49.7598L156.5 50Z" stroke="black" stroke-linecap="round"/>
<path d="M62.5 1L62.0372 7.01641C62.0129 7.33285 62.075 7.64995 62.2169 7.93381L62.25 8C62.6642 8.82843 63.6716 9.16421 64.5 8.75V8.75C64.8246 8.58772 65.0877 8.32456 65.25 8L67.3036 3.89273C67.4342 3.6317 67.5357 3.35716 67.6065 3.07402L68 1.5M68 3.5L69.5 8.5L70.8524 13.9094C70.9502 14.3009 70.9883 14.7049 70.9653 15.1078L70 32M70 32L71.0499 32.5249C71.6725 32.8363 72.2031 33.3047 72.5892 33.8839L72.785 34.1775C72.928 34.392 73.0499 34.6198 73.1491 34.8578L75.1923 39.7615C75.3954 40.249 75.5 40.7719 75.5 41.3V45.5V47M70 32L69.6512 47M64 67L67.7078 60.5113C67.9016 60.1723 68.0446 59.8067 68.1324 59.4262L69.4081 53.898C69.4692 53.6334 69.5032 53.3632 69.5095 53.0916L69.6512 47M75.5 47H69.6512M75.5 47L76.7632 47.3158C77.2501 47.4375 77.7097 47.6498 78.118 47.9414L80.1331 49.3808C80.7011 49.7865 81.3655 50.0365 82.06 50.106L86 50.5L91 51.5L95.5 52.5V52.5C96.5159 52.754 97.5 51.9856 97.5 50.9384V47.9823C97.5 47.662 97.5393 47.3429 97.617 47.0321L97.8256 46.1977C97.9407 45.7372 98.1467 45.3044 98.4315 44.9246L99.1941 43.9079C99.3867 43.6511 99.6889 43.5 100.01 43.5V43.5C100.32 43.5 100.613 43.3592 100.806 43.1173L102.5 41L106.274 36.7538C106.425 36.5849 106.589 36.429 106.765 36.2878L108.468 34.9257C108.82 34.6439 109.122 34.3046 109.361 33.9222L111.5 30.5L113.5 28L118.691 19.9781C118.896 19.661 119.055 19.3163 119.164 18.9545L120.5 14.5L122.5 9.5L126.5 1" stroke="black" stroke-linecap="round"/>
<path d="M148.5 18.5C141 18.3334 124.3 20.4 117.5 30M117.5 30.5L117 33.5L115 62L113.5 79.5V83.1498C113.5 83.3828 113.52 83.6154 113.561 83.8449L114.933 91.6197C114.978 91.8726 115.046 92.1207 115.139 92.3605L119.763 104.383C119.92 104.792 120.143 105.172 120.423 105.508L127.126 113.552C127.374 113.849 127.577 114.181 127.73 114.537L130.5 121L132.5 126V126C132.771 126.813 133.666 127.229 134.476 126.949C143.751 123.745 162.272 121.863 172.895 136.85C172.964 136.948 173.043 137.043 173.127 137.127V137.127C173.898 137.898 175.136 137.935 175.951 137.21L179 134.5M179 134.5L180 127M179 134.5L192.5 141.5L193.874 142.187C194.288 142.394 194.735 142.528 195.195 142.582L203 143.5L216 145H220.128C220.376 145 220.626 145.022 220.867 145.074C226.949 146.392 228.163 151.212 228 153.5V163.959C228 164.317 228.058 164.673 228.171 165.013V165.013C228.385 165.656 228.79 166.218 229.332 166.624L229.559 166.794C230.173 167.255 230.907 167.529 231.674 167.584L244.5 168.5M180 127V119.5M180 127L201 100.5M201 100.5L203 99.5L206.559 98.1654C206.852 98.0555 207.157 97.9804 207.467 97.9416L211 97.5H213.935C214.31 97.5 214.676 97.5505 215.036 97.6556C223.238 100.05 239.379 105.388 246.437 109.894C247.461 110.548 248 111.707 248 112.922V115.5M201 100.5L208.5 102L223.5 105L235.23 108.91C235.41 108.97 235.585 109.042 235.754 109.127L244.5 113.5L248 115.5M201 100.5L203.5 40M248 115.5L248.5 126.5L247 147L245.548 165.394C245.516 165.796 245.424 166.19 245.274 166.565L244.5 168.5M244.5 168.5L242.124 172.723C241.046 174.641 242.058 177.061 244.181 177.64V177.64C245.027 177.871 245.93 177.764 246.698 177.341L255.047 172.749C255.348 172.584 255.626 172.38 255.875 172.144L265.5 163L273.502 153.855C274.902 152.255 277.311 152.03 278.983 153.344L281.439 155.274C282.423 156.046 283.711 156.315 284.92 155.999L292.367 154.057C293.695 153.71 294.752 152.707 295.169 151.399L297.575 143.837C297.85 142.972 298.412 142.226 299.167 141.722L304 138.5L307.14 136.756C308.015 136.27 308.676 135.473 308.992 134.524L309.605 132.685C309.862 131.914 310.357 130.94 311.148 131.131C311.522 131.221 311.803 131.465 312.5 131C313.567 130.289 313.395 131.5 314.866 130.14C315.3 129.738 315.785 129.386 316.334 129.166L317.745 128.602C319.381 127.948 321.253 128.441 322.354 129.817L323.876 131.72C324.286 132.232 324.563 132.837 324.684 133.482L325.921 140.079C325.974 140.359 326.056 140.632 326.166 140.894L329.875 149.704C329.958 149.901 330.057 150.091 330.17 150.272L342.5 170L350.384 185.329C351.069 186.662 352.442 187.5 353.941 187.5H355.163C355.715 187.5 356.261 187.614 356.767 187.835L363.079 190.597C363.684 190.862 364.344 190.972 365.002 190.92L375.884 190.049C376.292 190.017 376.703 190.047 377.102 190.139L389.5 193L393.057 193.79C393.677 193.928 394.255 194.211 394.743 194.617L412.084 209.006C413.242 209.967 414.877 208.628 414.164 207.304V207.304C414.056 207.104 414 206.883 414 206.656C414 202.549 414 194.778 414 194C414 193.237 417.941 181.499 420.186 174.92C420.393 174.313 420.742 173.769 421.207 173.327C425.055 169.664 431.748 163.376 432.5 163C433.3 162.6 439.833 160.833 443 160L449.38 158.006C450.344 157.705 451 156.812 451 155.803V155.803C451 155.602 450.974 155.402 450.922 155.208L449.091 148.341C449.03 148.114 448.95 147.893 448.851 147.68L445.778 141.096C445.594 140.701 445.475 140.279 445.427 139.846L445 136V132.77C445 132.261 445.097 131.757 445.286 131.285L447.881 124.798C447.96 124.6 448.055 124.408 448.165 124.225L451.147 119.254C451.968 117.886 453.524 117.137 455.106 117.347L459.573 117.943C459.853 117.98 460.138 117.945 460.4 117.84V117.84C461.436 117.426 461.771 116.129 461.009 115.314C435.112 87.608 360.642 82.8562 326 84M177.5 22.5C184.167 25.1667 198.7 32.4 203.5 40M203.5 40V37M203.5 40L205 42.5L206.286 45.5009C206.428 45.8321 206.614 46.1426 206.839 46.424L208.051 47.9387C208.348 48.3099 208.709 48.6252 209.116 48.8699L212.828 51.0969C213.272 51.3631 213.66 51.7129 213.97 52.1268L216.5 55.5L217.2 56.4333C217.719 57.1257 218 57.9679 218 58.8333V60V63V63.7929C218 64.2456 218.18 64.6799 218.5 65V65C218.82 65.3201 219.254 65.5 219.707 65.5H236.139C236.379 65.5 236.619 65.4784 236.855 65.4355L241.797 64.537C241.932 64.5124 242.069 64.5 242.207 64.5V64.5C243.473 64.5 244.5 63.4733 244.5 62.2068V57.5V54V47V44.4443C244.5 43.8233 244.645 43.2108 244.922 42.6554L251.161 30.1777C251.369 29.7624 251.793 29.5 252.258 29.5V29.5C252.941 29.5 253.493 30.0588 253.484 30.7422L253 67.5M203.5 37L201.5 28.5L195.5 1M203.5 37V28.7894C203.5 28.5967 203.486 28.4043 203.458 28.2136L199.5 1M253 67.5V73V78.228C253 79.8954 254.034 81.3879 255.596 81.9733L256.55 82.3311C256.849 82.4433 257.159 82.5146 257.473 82.572C261.808 83.3633 270.187 88.3534 272.5 103M253 67.5C254.984 63.6977 263.658 55.2385 282.535 51.5885C282.84 51.5295 283.143 51.4362 283.428 51.31L287.018 49.7143C287.338 49.572 287.638 49.3884 287.91 49.168L298 41L299.5 39.5M299.5 39.5L301 37C307.833 28.1667 324.8 8.5 338 0.5M299.5 39.5L302 39M302 39L335.5 45.5L343.5 47L350.5 47.5V47.5C351.098 47.5 351.625 47.1234 351.827 46.5609C356.93 32.3281 370.959 12.3158 389.212 39.074C389.397 39.3452 389.641 39.5937 389.914 39.7758V39.7758C390.595 40.2297 391.45 40.326 392.209 40.0201C406.427 34.2887 436.233 19.2646 451 1M302 39L297.726 46.1235C297.576 46.3737 297.453 46.6397 297.361 46.9166L296.634 49.0984C296.552 49.3445 296.616 49.6159 296.799 49.7994V49.7994C296.928 49.9278 297.102 50 297.284 50H306L315.5 49L334.615 47.0395C334.871 47.0132 335.129 47.0117 335.385 47.035L339.332 47.3938C340.095 47.4631 340.821 47.7499 341.426 48.22L345 51L346.915 52.5961C347.617 53.181 348.098 53.9886 348.277 54.8845L348.422 55.6116C348.474 55.8699 348.5 56.1327 348.5 56.3961V57.4536C348.5 58.4486 348.129 59.408 347.46 60.1443L343.742 64.2341C343.581 64.411 343.436 64.602 343.31 64.8048L341.468 67.7517C341.16 68.2447 340.963 68.7988 340.891 69.3756L340.5 72.5L340.231 75.461C340.094 76.9669 338.983 78.2034 337.5 78.5V78.5L328.377 80.4206C328.127 80.4733 327.884 80.558 327.655 80.6724V80.6724C326.641 81.1796 326 82.2164 326 83.3505V84M326 84C316.333 85.5 296.5 89.1 294.5 91.5M272.5 103L264.5 105L259.361 106.869C259.121 106.956 258.89 107.066 258.67 107.198L251.765 111.341C251.589 111.447 251.421 111.566 251.262 111.698L248.5 114M272.5 103H277.561C277.853 103 278.144 103.032 278.429 103.095L290.658 105.813C291.213 105.936 291.735 106.176 292.19 106.518L295.5 109M295.5 109L296.5 110.5M295.5 109L294.5 92" stroke="black" stroke-linecap="round"/>
<path d="M295.5 110L290.51 109.093C290.173 109.031 289.827 109.029 289.488 109.085L287.938 109.344C287.397 109.434 287 109.902 287 110.451V110.451C287 110.797 287.16 111.124 287.433 111.337L291.5 114.5L295.5 118.5V118.5C296.052 119.052 296.052 119.948 295.5 120.5L294.384 121.616C294.13 121.87 293.833 122.076 293.506 122.225L288.5 124.5L279.353 127.87C279.118 127.956 278.892 128.065 278.678 128.193L277.057 129.166C276.688 129.387 276.286 129.548 275.866 129.641L272.884 130.303C272.302 130.433 271.698 130.43 271.117 130.296L266.324 129.19C265.781 129.065 265.27 128.827 264.823 128.493L260.177 125.007C259.73 124.673 259.219 124.435 258.676 124.31L253.464 123.107C253.156 123.036 252.857 122.929 252.574 122.787L249 121" stroke="black" stroke-linecap="round"/>
<path d="M218 64.5L216 97.5" stroke="black" stroke-linecap="round"/>
<path d="M254.5 82H249.349C248.789 82 248.236 82.1174 247.724 82.3448L245.025 83.5442C244.355 83.8423 243.779 84.3192 243.361 84.9226L239.825 90.0302C239.61 90.3418 239.439 90.6825 239.319 91.0421L236.784 98.6488C236.602 99.1938 236.644 99.7887 236.901 100.303L237.209 100.919C237.388 101.275 237.751 101.5 238.15 101.5V101.5C238.377 101.5 238.598 101.426 238.78 101.29L240.462 100.028C240.487 100.009 240.511 99.9889 240.533 99.9668V99.9668C240.791 99.709 241.209 99.709 241.467 99.9668L242 100.5L245.5 103.5L247.975 105.975C248.322 106.322 248.602 106.73 248.802 107.179L250.5 111M242.5 86.5L243.5 90L243.848 92.4359C243.945 93.113 244.325 93.7168 244.894 94.0962V94.0962C245.289 94.3595 245.753 94.5 246.228 94.5H246.322C247.35 94.5 248.291 95.081 248.75 96.0008L249.334 97.1675C249.444 97.3887 249.534 97.6197 249.602 97.8575L251.5 104.5L253.5 109.5" stroke="black" stroke-linecap="round"/>
<path d="M249 82L252 31.5" stroke="black" stroke-linecap="round"/>
<path d="M241 99.5V99.5C241 98.9477 241.448 98.5 242 98.5H243C244.105 98.5 245 97.6046 245 96.5V95" stroke="black" stroke-linecap="round"/>
<path d="M260.5 80.5C274 65.8333 295.8 47.9 275 93.5" stroke="black" stroke-linecap="round"/>
<path d="M259 83L260.5 80.5M275 93.5L272.5 100" stroke="black" stroke-linecap="round"/>
<path d="M100 44L99 60L98.0244 73.171C98.0082 73.3899 98.01 73.6099 98.0299 73.8286L99 84.5V86.5M99 86.5L101.492 87.3306C101.829 87.443 102.15 87.5999 102.446 87.7971L102.834 88.0562C103.274 88.3492 103.651 88.7262 103.944 89.1656L107.315 94.2221C107.438 94.4071 107.546 94.6019 107.637 94.8047L120.15 122.719C120.381 123.234 120.5 123.792 120.5 124.356V125.044C120.5 126.278 119.93 127.443 118.956 128.201L116.372 130.211C116.125 130.403 115.856 130.565 115.571 130.695L111.289 132.641C110.769 132.878 110.205 133 109.634 133H103.5L92.5 132L85.3884 130.578C85.1301 130.526 84.8673 130.5 84.6039 130.5H79.5H75H74.2068C72.8332 130.5 71.5557 129.795 70.8231 128.633L57.6541 107.745C57.5515 107.582 57.4608 107.412 57.3826 107.236L55.7067 103.465C55.5694 103.156 55.4719 102.831 55.4163 102.498L54.5544 97.3265C54.5182 97.1092 54.5 96.8893 54.5 96.6689V95.0602C54.5 94.6886 54.5518 94.3187 54.6539 93.9613L54.9988 92.7543C55.3171 91.64 56.1032 90.7185 57.1533 90.2284L62.5452 87.7122C62.8472 87.5713 63.1615 87.4688 63.4895 87.4097C69.9715 86.2425 85.3563 84.5509 99 86.5Z" stroke="black" stroke-linecap="round"/>
<path d="M55 96.5L56.7115 95.2164C56.9034 95.0724 57.108 94.946 57.3226 94.8387L62 92.5C64.8333 91.3333 77.2 89.2 104 90" stroke="black" stroke-linecap="round"/>
<path d="M107.5 36.5H108.114C109.539 36.5 110.804 37.4117 111.254 38.7633V38.7633C111.416 39.2479 111.463 39.7632 111.392 40.269L104.5 89.5" stroke="black" stroke-linecap="round"/>
<path d="M113.5 28C114.667 28 117 28.5 117 30.5" stroke="black" stroke-linecap="round"/>
<path d="M1 13L10 23L13.154 27.0551C13.3835 27.3503 13.6453 27.6056 13.9468 27.8267C23.9457 35.1578 44.0596 51.3312 48 60C51.1667 65.8333 58.3 79.4 61.5 87" stroke="black" stroke-linecap="round"/>
<path d="M64.5 87.5L64 80.5L63.5 74V68L62 8" stroke="black" stroke-linecap="round"/>
<path d="M54.5 97.5C54.6667 109.333 50.3 128.8 31.5 112" stroke="black" stroke-linecap="round"/>
<path d="M31.5 112C25.5 105.833 12.4 89.9 8 75.5" stroke="black" stroke-linecap="round"/>
<path d="M1 68.5L2.5 69.7857M2.5 69.7857L4.13084 71.1836C4.37604 71.3938 4.59489 71.6329 4.78261 71.8956L6.84486 74.7828C6.94674 74.9254 7.08196 75.041 7.23873 75.1194V75.1194C7.68477 75.3424 8.22563 75.2292 8.54488 74.8461L9.8407 73.2912C10.2717 72.7739 10.5504 72.147 10.6456 71.4805L10.8777 69.8563C10.9564 69.3049 10.8292 68.7438 10.5202 68.2803V68.2803C10.1871 67.7807 9.66922 67.4338 9.08043 67.3161L8.68694 67.2374C7.92159 67.0843 7.12671 67.2133 6.44904 67.6006L4 69L2.5 69.7857Z" stroke="black" stroke-linecap="round"/>
<path d="M241.5 87.5H234.35C234.117 87.5 233.885 87.5204 233.655 87.5609L225.5 89" stroke="black" stroke-linecap="round"/>
<path d="M1 167L2.3323 168.332C2.7714 168.771 3.3067 169.102 3.89582 169.299L5.59798 169.866C5.86525 169.955 6.14117 170.016 6.42117 170.047L9.67515 170.408C10.2193 170.469 10.77 170.417 11.2932 170.256L15.9142 168.834C16.624 168.616 17.259 168.204 17.7481 167.645L20.5 164.5L22.4194 162.581C22.8025 162.198 23.2593 161.896 23.7623 161.695L24.396 161.442C25.1164 161.153 25.9051 161.081 26.666 161.233L32.6116 162.422C32.8699 162.474 33.1327 162.5 33.3961 162.5H35.4186C36.1268 162.5 36.8223 162.688 37.4341 163.045L41.5659 165.455C42.1777 165.812 42.8732 166 43.5814 166H46.5H57.7889C58.5786 166 59.3506 165.766 60.0077 165.328L64.1161 162.589C64.6953 162.203 65.1637 161.673 65.4751 161.05L66.5 159M45.5 229V220.284C45.5 220.095 45.5134 219.906 45.5402 219.719L46.2208 214.954C46.3957 213.73 47.1598 212.67 48.2656 212.117V212.117C49.0626 211.719 49.6926 211.051 50.0436 210.232L54 201L60.2015 187.643C60.399 187.218 60.6696 186.83 61.0012 186.499L61.3284 186.172C62.0786 185.421 62.5 184.404 62.5 183.343V178.992C62.5 178.665 62.5401 178.34 62.6194 178.022L65.5 166.5L65.8 165.5M68.5 229.5L68.9721 222.89C68.9907 222.631 69.0345 222.374 69.1029 222.123L70.2413 217.949C70.4112 217.326 70.7296 216.753 71.1691 216.279L76.2618 210.795C76.7452 210.274 77.0812 209.634 77.2353 208.941L77.9047 205.929C77.9681 205.644 78 205.353 78 205.061V200.243C78 199.752 78.0904 199.265 78.2666 198.807L80.0435 194.187C80.3405 193.415 80.8697 192.754 81.5581 192.295L85 190L88.2146 187.245C88.4044 187.082 88.5786 186.902 88.7349 186.706L93.8095 180.363C94.2614 179.798 94.5516 179.122 94.6493 178.405L95.6005 171.43C95.8353 169.708 97.2112 168.365 98.9389 168.173V168.173C99.9385 168.062 100.853 167.559 101.481 166.773L101.716 166.48C102.226 165.842 102.529 165.063 102.583 164.248L103 158V152.657C103 151.596 102.579 150.579 101.828 149.828L101.3 149.3C101.1 149.1 100.881 148.923 100.644 148.77L92.8264 143.711C92.6093 143.571 92.3791 143.452 92.139 143.356L85 140.5L80.2987 139.218C79.7718 139.074 79.2211 139.04 78.6805 139.117L77.8408 139.237C76.6736 139.404 75.6394 140.077 75.0145 141.077L73.5 143.5L68.2707 150.631C68.0908 150.876 67.9395 151.141 67.8197 151.421L66.8824 153.608C66.6311 154.194 66.5237 154.832 66.5692 155.468L66.9477 160.768C66.9823 161.252 66.9286 161.738 66.7892 162.203L65.8 165.5M65.8 165.5L68.2227 162.85C68.7306 162.295 69.0714 161.607 69.2061 160.867L70 156.5L70.7473 153.137C70.9123 152.394 71.2857 151.714 71.8236 151.176L73.9871 149.013C74.3263 148.674 74.7237 148.398 75.1603 148.2L79.3684 146.287C79.7863 146.097 80.2339 145.981 80.6914 145.942L85.0075 145.583C85.6592 145.528 86.3143 145.635 86.9154 145.892L89.5 147L92.1912 148.153C92.724 148.382 93.2009 148.723 93.5887 149.154L96.4732 152.359C97.1342 153.094 97.5 154.047 97.5 155.035V161L97 165" stroke="black" stroke-linecap="round"/>
<path d="M70.5 159L72 162L72.9185 164.143C73.2899 165.01 73.2899 165.99 72.9185 166.857L72.2249 168.475C72.0891 168.792 72.1599 169.16 72.4037 169.404V169.404C72.733 169.733 73.267 169.733 73.5963 169.404L86.2929 156.707C86.4255 156.574 86.6054 156.5 86.7929 156.5V156.5C87.1834 156.5 87.5 156.817 87.5 157.207V162.209C87.5 162.98 87.9932 163.664 88.7243 163.908V163.908C88.9069 163.969 89.0981 164 89.2906 164H89.6019C91.0614 164 92.3852 163.144 92.9841 161.813L96.5 154" stroke="black" stroke-linecap="round"/>
<path d="M100.5 168.5C104.917 168.336 114.729 168.783 119.25 171.825C119.42 171.939 119.583 172.044 119.766 172.134C125.513 174.975 142.866 180.002 168.933 178.533C169.306 178.512 169.676 178.435 170.032 178.322C173.162 177.33 180.238 175.912 187.656 176.95C187.885 176.982 188.11 177.037 188.329 177.11L189.765 177.588C191.398 178.133 192.5 179.661 192.5 181.383V184.139C192.5 184.379 192.522 184.619 192.565 184.855L193.428 189.604C193.476 189.867 193.55 190.125 193.65 190.374L194.08 191.449C194.355 192.136 194.814 192.725 195.389 193.191C201.239 197.943 210.392 209.206 206.687 221.893C206.57 222.294 206.492 222.714 206.524 223.131C206.643 224.666 207.185 225.655 207.635 226.167C207.852 226.414 208.158 226.553 208.47 226.657V226.657C209.981 227.16 211 228.574 211 230.167V231.781C211 232.257 211.085 232.728 211.25 233.174L217.252 249.331C217.416 249.774 217.657 250.183 217.964 250.542L222.974 256.387C223.321 256.791 223.746 257.123 224.222 257.361L225.291 257.896C225.43 257.965 225.576 258.019 225.726 258.057V258.057C226.746 258.312 227.799 257.783 228.203 256.812L232.291 247.002C232.43 246.669 232.523 246.318 232.567 245.96L233.422 239.123C233.474 238.71 233.461 238.292 233.383 237.883L230.07 220.369C230.023 220.123 230 219.874 230 219.625V213.5C230 212.843 229.838 212.197 229.529 211.618L226.412 205.773C226.141 205.264 225.982 204.702 225.949 204.125L225.5 196.5V193.296C225.5 192.154 225.989 191.066 226.843 190.307L228.453 188.875C229.423 188.013 229.915 186.733 229.771 185.443L229.045 178.903C229.015 178.635 228.958 178.371 228.875 178.114L223.687 162.079C223.563 161.695 223.382 161.332 223.149 161.003L219.017 155.149C218.096 153.845 216.488 153.213 214.925 153.542L208 155L195.619 157.796C193.795 158.208 192.5 159.828 192.5 161.697V166.5V166.5C192.5 167.605 193.395 168.5 194.5 168.5H194.972C195.909 168.5 196.765 167.971 197.183 167.133L199.373 162.755C199.779 161.943 200.449 161.293 201.274 160.912L205.152 159.122C206.022 158.721 207.006 158.645 207.927 158.908L213.5 160.5L215.516 161.004C216.762 161.315 217.783 162.206 218.26 163.399L219.5 166.5L221.26 169.58C221.419 169.859 221.545 170.156 221.633 170.465L223.5 177L225.5 190M45.5 229V243.576C45.5 243.858 45.4702 244.139 45.4112 244.414L42.5888 257.586C42.5298 257.861 42.5 258.142 42.5 258.424V259.699C42.5 260.545 42.7678 261.368 43.2651 262.052L43.9678 263.018C45.3352 264.898 48.0118 265.221 49.7865 263.719L53 261L59.7535 255.694C59.9176 255.565 60.0713 255.423 60.2133 255.27L65.5927 249.477C66.1816 248.843 66.549 248.035 66.6396 247.174L68.5 229.5" stroke="black" stroke-linecap="round"/>
<path d="M480 157L477.67 159.796C477.56 159.928 477.5 160.094 477.5 160.266V160.266C477.5 160.671 477.829 161 478.234 161H478.377C478.459 161 478.54 161.011 478.618 161.034L481.882 161.966C481.96 161.989 482.041 162 482.123 162V162C482.607 162 483 161.607 483 161.123V160.709C483 160.571 482.978 160.433 482.934 160.301L482.796 159.889C482.601 159.304 482.273 158.773 481.837 158.337L480.5 157" stroke="black" stroke-linecap="round"/>
<path d="M468.5 199.5L470.133 200.317C470.377 200.439 470.633 200.533 470.898 200.599L471.859 200.84C472.267 200.942 472.7 200.867 473.05 200.633L473.147 200.569C473.651 200.233 473.867 199.602 473.676 199.027V199.027C473.563 198.69 473.321 198.411 473.003 198.251L470.5 197L469.23 196.365C468.827 196.163 468.337 196.327 468.135 196.73V196.73C468.048 196.904 468.026 197.104 468.073 197.293L468.5 199" stroke="black" stroke-linecap="round"/>
<path d="M360 83.5L366.868 66.8214C366.956 66.608 367.017 66.3844 367.049 66.156V66.156C367.288 64.4871 368.944 63.4127 370.565 63.8758L371 64L376 65.5M376 65.5L379.843 64.8596C381.187 64.6355 382.325 63.7424 382.862 62.4897L383.227 61.6377C383.408 61.2157 383.66 60.828 383.972 60.4916L390 54C394 48.3333 405.6 38.8 420 46L426.227 49.3531C426.409 49.4509 426.598 49.5345 426.792 49.6031L435 52.5L442.885 54.4712C444.203 54.8008 445.603 54.4438 446.51 53.4311C449.777 49.7814 455.678 41.8413 461.673 29.6686C461.889 29.2296 462.022 28.75 462.064 28.2624L463 17.5V14.9031C463 13.9948 463.309 13.1136 463.877 12.4043L464.374 11.7829C464.785 11.2689 465.317 10.8643 465.922 10.6051L467.925 9.74631C468.304 9.5838 468.713 9.5 469.125 9.5V9.5C469.999 9.5 470.831 9.12457 471.41 8.46919L478 1M376 65.5V62.8961C376 62.6327 375.974 62.3699 375.922 62.1116L375.26 58.8011C375.091 57.9563 374.654 57.1887 374.014 56.6124L370.492 53.4427C370.166 53.1496 369.795 52.9119 369.392 52.7393L366.838 51.6447C366.613 51.5484 366.398 51.4318 366.194 51.2963L363.5 49.5M342 67L346.177 67.9283C346.392 67.9759 346.611 68 346.831 68V68C347.869 68 348.834 67.465 349.385 66.5844L350.719 64.45C350.905 64.1513 351.131 63.8786 351.389 63.6389L358 57.5L362.332 53.1677C362.771 52.7286 363.102 52.1933 363.299 51.6042L363.925 49.7243C363.975 49.5757 364 49.4202 364 49.2636V49.2636C364 48.5385 363.467 47.9238 362.749 47.8213L361.427 47.6324C360.823 47.5462 360.209 47.6477 359.659 47.911C358.615 48.411 357.307 49 357 49C356.613 49 352.762 52.7448 350.701 54.7993C350.567 54.933 350.443 55.076 350.329 55.2274L349 57" stroke="black" stroke-linecap="round"/>
<path d="M416 44C421.833 43 433.6 36.4 434 18M391.5 41C388.833 42.8333 385.3 47.2 392.5 50M404.5 44L423.5 24" stroke="black" stroke-linecap="round"/>
<path d="M1 139L2.71696 138.714C3.55083 138.575 4.40729 138.704 5.16341 139.082L11.0877 142.044C11.6863 142.343 12.198 142.789 12.5901 143.332C15.1581 146.884 18.362 150.543 23 157.5M41 122.5C43.5632 128.427 47.4814 142.916 43.5191 155.043C43.2101 155.989 42.5068 156.747 41.6168 157.192L40.0178 157.991C39.3525 158.324 38.6076 158.464 37.8668 158.397L28 157.5H23.5M41 122H41.7297C42.2385 122 42.7428 122.097 43.2152 122.286L47.4856 123.994C49.0042 124.602 50 126.073 50 127.708V145.5C50 147.709 51.7909 149.5 54 149.5H58.2269C59.0551 149.5 59.8623 149.248 60.528 148.755C63.3691 146.651 67.4633 143.28 70.0682 140.177C71.6912 138.243 73.3918 133.772 75.4352 132.29C76.4518 131.552 77.6707 131 79 131M115 131C116.97 134.776 121.85 145.859 125.819 160.334C125.939 160.773 125.986 161.232 125.933 161.685C125.646 164.132 124.675 168.737 122.5 172" stroke="black" stroke-linecap="round"/>
<path d="M351 185.5L356.554 181.797C356.85 181.6 357.171 181.443 357.508 181.331L362.131 179.79C362.703 179.599 363.31 179.54 363.908 179.617L377.829 181.413C378.273 181.471 378.705 181.602 379.106 181.803L386.5 185.5M386.5 185.5L391.565 189.299C392.176 189.757 392.642 190.38 392.91 191.094L394 194M386.5 185.5L386.979 162.989C386.993 162.339 386.848 161.696 386.558 161.115L384.282 156.565C384.105 156.21 383.768 155.961 383.377 155.896L381.575 155.596C381.334 155.556 381.24 155.26 381.412 155.088V155.088C381.468 155.032 381.545 155 381.624 155H387.94C388.311 155 388.681 154.948 389.039 154.846L399 152L404.5 150L406.653 149.077C407.523 148.705 408.232 148.036 408.655 147.189L410.5 143.5L411.281 141.939C411.721 141.057 412.623 140.5 413.609 140.5V140.5C413.868 140.5 414.126 140.539 414.374 140.615L418.343 141.836C419.682 142.248 420.708 143.33 421.047 144.689L422 148.5L423.5 156L424.314 159.662C424.434 160.203 424.744 160.683 425.187 161.015V161.015C425.974 161.605 427.047 161.635 427.866 161.089L430.558 159.295C430.851 159.099 431.118 158.866 431.35 158.6L433.274 156.402C434.051 155.513 434.396 154.326 434.217 153.159L433.5 148.5" stroke="black" stroke-linecap="round"/>
<path d="M388 164L388.442 163.811C390.214 163.051 392.28 163.663 393.464 165.184C395.208 167.423 397.782 170.45 400.863 173.426C401.586 174.124 402.558 174.5 403.564 174.5H410.718C411.519 174.5 412.267 174.1 412.711 173.434L414.38 170.93C414.656 170.516 415.277 170.554 415.5 171V171L418.5 178" stroke="black" stroke-linecap="round"/>
<path d="M450.5 141.5L445.5 136M449 129.5L446 131.5" stroke="black" stroke-linecap="round"/>
<path d="M309.5 131.5C304.5 128.5 297.1 121.2 307.5 116L309.238 115.305C309.741 115.104 310.198 114.802 310.581 114.419L311.72 113.28C311.906 113.094 312.074 112.89 312.22 112.67L313.142 111.287C313.694 110.459 314.535 109.866 315.5 109.625L316.87 109.283C317.608 109.098 318.383 109.128 319.105 109.368L319.92 109.64C320.626 109.875 321.252 110.303 321.728 110.874L322.986 112.383C323.325 112.79 323.58 113.261 323.736 113.768L325.5 119.5L326.382 124.35C326.46 124.781 326.608 125.195 326.821 125.577L328.81 129.158C328.936 129.385 329.085 129.6 329.253 129.799L334.263 135.72C334.421 135.906 334.595 136.078 334.784 136.232L339.245 139.883C339.741 140.288 340.327 140.569 340.954 140.701L349.026 142.4C349.341 142.467 349.662 142.495 349.984 142.484L363.906 142.02C364.3 142.007 364.686 141.937 365.058 141.808C372.615 139.18 387.928 132.852 393 127" stroke="black" stroke-linecap="round"/>
<path d="M205.5 178.5L207.559 177.617C208.482 177.222 209.209 176.476 209.582 175.545V175.545C209.855 174.863 209.923 174.117 209.779 173.397L209.5 172L209.392 171.566C209.175 170.701 208.299 170.175 207.434 170.392V170.392C207.15 170.463 206.891 170.609 206.684 170.816L205.28 172.22C205.094 172.406 204.926 172.61 204.78 172.83L204 174" stroke="black" stroke-linecap="round"/>
<path d="M0.5 166.5V139M1 90V90C0.723858 90 0.5 89.7761 0.5 89.5V68.5V13M62.5 0.5H126.5H246.5" stroke="black" stroke-linecap="round"/>
<path d="M338 0.5H478" stroke="black" stroke-linecap="round"/>
<path d="M497.5 131.5L498 247" stroke="black" stroke-linecap="round"/>
</svg>
