<svg width="1429" height="1080" viewBox="0 0 1429 1080" fill="none" xmlns="http://www.w3.org/2000/svg">
<path d="M734 417H765" stroke="black" stroke-width="2" stroke-linecap="round"/>
<path d="M709 409L725.951 396.757C726.633 396.265 727.453 396 728.293 396H731.5H741L750.046 396.905C750.673 396.967 751.306 396.881 751.894 396.652L760 393.5" stroke="black" stroke-width="2" stroke-linecap="round"/>
<path d="M480.5 962L538 927L555.5 917.5L605.684 889.178C605.894 889.06 606.093 888.922 606.279 888.768L607.561 887.699C608.473 886.939 609 885.814 609 884.627V881.5L611.5 845.5L613.5 835.5L620.5 812L624.376 796.98C624.458 796.661 624.58 796.354 624.738 796.064L627.312 791.344C627.437 791.115 627.584 790.899 627.751 790.699L627.896 790.524C629.119 789.057 631.208 788.659 632.885 789.573L635.5 791M635.5 788L648.476 790.966C650.859 791.511 653.168 789.81 653.356 787.373L654 779" stroke="black" stroke-width="2" stroke-linecap="round"/>
<path d="M960 1072L968.5 1074.5L974.408 1075.41C974.8 1075.47 975.2 1075.47 975.593 1075.41L1335.5 1023" stroke="black" stroke-width="2" stroke-linecap="round"/>
<path d="M765.5 649.5C768.112 650.246 777.889 658.012 783.384 662.569C784.108 663.17 785.015 663.5 785.955 663.5H792.5M805 661L976 618.5M940 658.5L952.744 643.796C952.914 643.599 953.065 643.386 953.194 643.16L958.35 634.138C958.772 633.399 959.42 632.813 960.198 632.468L981.5 623" stroke="black" stroke-width="2" stroke-linecap="round"/>
<path d="M129.5 468H151.745C152.562 468 153.359 467.75 154.03 467.283L306.212 361.396C307.019 360.835 307.5 359.914 307.5 358.931V358.931C307.5 357.755 306.813 356.687 305.743 356.199L279 344M199 404L164.122 348.981C163.716 348.34 163.5 347.597 163.5 346.839V340.3C163.5 339.772 163.605 339.249 163.808 338.762L166 333.5L240 140L241.783 135.987C241.925 135.669 242.154 135.397 242.444 135.204V135.204C243.08 134.78 243.911 134.794 244.533 135.238L246.664 136.76C246.887 136.919 247.094 137.102 247.28 137.304L270.5 162.5M341 331L291 312.5L289.174 311.891C288.409 311.636 287.585 311.618 286.81 311.84L285.605 312.184C284.883 312.391 284.233 312.796 283.731 313.354L280 317.5L209.5 385M381 362H400.5M401 362.5H406.628C406.876 362.5 407.122 362.523 407.365 362.569L414.635 363.931C414.878 363.977 415.124 364 415.372 364H415.597C416.505 364 417.386 363.691 418.096 363.123L426.314 356.549C426.766 356.187 427.134 355.732 427.393 355.214L430.578 348.845C430.855 348.289 431 347.677 431 347.056V346.976C431 345.21 429.841 343.652 428.149 343.145L426 342.5M549 187.5L516.5 211L514.613 212.573C513.894 213.172 512.988 213.5 512.052 213.5H496.5H450L434.5 214.5M641.5 135L621.553 111.647C621.188 111.221 620.738 110.875 620.231 110.634L610.5 106L568.5 87L532.302 72.6201C532.101 72.5402 531.907 72.444 531.721 72.3327L527.254 69.6522C527.085 69.5511 526.93 69.4298 526.791 69.2908V69.2908C525.817 68.3174 525.859 66.7267 526.882 65.8058L534.413 59.0282C534.801 58.6794 535.253 58.4098 535.744 58.2344L647 18.5L695 1.5M807 89L884.073 32.8114C884.356 32.6047 884.666 32.4362 884.993 32.3102L889.795 30.4635C890.578 30.1622 891.437 30.115 892.249 30.3286L900.179 32.4156C900.393 32.4718 900.601 32.5455 900.802 32.6361L1245 187.5" stroke="black" stroke-width="2" stroke-linecap="round"/>
<path d="M1413.5 1079L1427.5 1064" stroke="black" stroke-width="2" stroke-linecap="round"/>
<path d="M1352.5 1006L1307.5 1052L1280 1078.5L1279.5 1079" stroke="black" stroke-width="2" stroke-linecap="round"/>
<path d="M645 1079L668 1060L905.939 868.451C906.31 868.153 906.731 867.923 907.183 867.772L910.384 866.705C910.792 866.569 911.219 866.5 911.649 866.5H912.5M984 1013.5V1007.85C984 1007.62 983.98 1007.39 983.94 1007.16L961.347 877.987C961.129 876.737 960.331 875.665 959.196 875.098L956.645 873.823C956.219 873.609 955.757 873.474 955.283 873.423L942.665 872.071C942.225 872.024 941.78 872.05 941.348 872.149L925.817 875.699C924.963 875.894 924.068 875.804 923.27 875.441L919 873.5L916.924 872.61C916.008 872.218 915.271 871.497 914.859 870.589L913.207 866.955C913.081 866.678 912.805 866.5 912.5 866.5V866.5M984 1013.5L1002.5 1050.5L1007 1060M984 1013.5L915.5 881.5L914.82 879.913C914.322 878.752 913.181 878 911.919 878V878C911.319 878 910.731 878.171 910.225 878.493L905.5 881.5L654 1079M1007 1060L1006 1062M1007 1060V1057.39C1007 1056.19 1007.54 1055.06 1008.46 1054.3L1039.84 1028.54C1040.28 1028.18 1040.63 1027.74 1040.88 1027.24L1041.33 1026.35C1041.76 1025.48 1041.86 1024.48 1041.62 1023.54L1039.5 1015.5L1000.51 875.349C1000.19 874.18 999.351 873.222 998.236 872.744L996.5 872C991.833 870.5 982.4 867.4 982 867C981.6 866.6 969.167 865.5 963 865L921.5 863H918.761C917.94 863 917.139 863.252 916.467 863.723L912.5 866.5M1006 1062C1000.83 1062.5 990.4 1063.5 990 1063.5C989.6 1063.5 979.5 1065.5 974.5 1066.5L964.811 1068.92C964.604 1068.97 964.401 1069.04 964.205 1069.13L957.838 1071.86C957.613 1071.95 957.398 1072.07 957.194 1072.2L951.83 1075.78C951.61 1075.93 951.406 1076.09 951.22 1076.28L949 1078.5M1006 1062L1073 1051.24M699.5 1079L798 974.5L809.5 964.5L818 958L861.5 922L875.5 913L880.166 909.182C880.712 908.735 881.131 908.152 881.378 907.491L882.245 905.179C882.414 904.73 882.5 904.254 882.5 903.775V901M666.5 1079L661.5 1074M1427 936.5H1424.63C1423.59 936.5 1422.58 936.91 1421.83 937.642L1395 963.913M1395 963.913L1352.4 1005.62C1351.81 1006.19 1351.07 1006.57 1350.26 1006.71L1345.5 1007.5L1073 1051.24M1395 963.913L1387.5 965.5L1114 1013.41C1113.67 1013.47 1113.34 1013.57 1113.04 1013.71L1108.55 1015.75C1108.19 1015.92 1107.85 1016.14 1107.55 1016.4L1103.5 1020L1078 1046L1073 1051.24" stroke="black" stroke-width="2" stroke-linecap="round"/>
<path d="M584 1079L593.5 1065.5L595.28 1062.83C595.426 1062.61 595.594 1062.41 595.78 1062.22L598.121 1059.88C598.373 1059.63 598.656 1059.41 598.965 1059.23L601.689 1057.68C601.896 1057.56 602.113 1057.46 602.337 1057.38L640.925 1043.7C641.306 1043.57 641.665 1043.38 641.988 1043.13L642.873 1042.47C643.287 1042.16 643.637 1041.77 643.903 1041.33L644.75 1039.92C644.916 1039.64 645.048 1039.34 645.143 1039.04L649 1026.5M641.5 1044L647.058 1043.07C647.352 1043.02 647.639 1042.94 647.915 1042.83L658.5 1038.5L669.042 1034.19C669.346 1034.06 669.665 1033.98 669.99 1033.93L674.715 1033.25C675.806 1033.1 676.889 1033.58 677.5 1034.5V1034.5V1034.5C678.016 1035.53 679.349 1035.83 680.253 1035.11L690.5 1027L703 1016.5M678 1036.5L625.5 1079M606 1079L613.206 1064.11C613.401 1063.71 613.662 1063.34 613.978 1063.02L615.041 1061.96C615.345 1061.65 615.696 1061.4 616.081 1061.21L619.239 1059.63C619.413 1059.54 619.593 1059.47 619.777 1059.41L659 1046.5L666.5 1045" stroke="black" stroke-width="2" stroke-linecap="round"/>
<path d="M338.5 1079L346 1062.5L352.026 1050.91C352.337 1050.31 352.794 1049.8 353.356 1049.43L353.424 1049.38C353.805 1049.13 354.227 1048.94 354.672 1048.83L356 1048.5L413.004 1042.06C413.334 1042.02 413.666 1042.02 413.994 1042.07L422.546 1043.23C423.778 1043.4 424.862 1044.13 425.478 1045.21L426.325 1046.69C426.442 1046.9 426.575 1047.09 426.725 1047.27L429 1050M429 1050L459 1016.5L460.208 1014.99C460.67 1014.41 461.472 1014.24 462.133 1014.57V1014.57C462.665 1014.83 462.961 1015.39 463.106 1015.96C463.181 1016.26 463.305 1016.5 463.5 1016.5C463.792 1016.5 463.925 1018.1 463.974 1019.55C464.007 1020.49 463.672 1021.39 463.073 1022.11L461.5 1024L413.5 1079M429 1050L405 1079M348.5 1079L371.766 1055.73C371.922 1055.58 372.09 1055.44 372.269 1055.31L374.746 1053.54C375.242 1053.18 375.813 1052.95 376.414 1052.85L378.5 1052.5L384 1051.5L388.5 1051L411.5 1048L418.373 1047.54C418.789 1047.51 419.206 1047.55 419.609 1047.65L421 1048M357 1079L378.5 1059L382 1055L384 1052" stroke="black" stroke-width="2" stroke-linecap="round"/>
<path d="M430.5 1079L447.5 1060L483.765 1019.26C483.921 1019.09 484.099 1018.93 484.294 1018.8V1018.8C485.049 1018.3 486.003 1018.2 486.845 1018.54L487.298 1018.72C487.761 1018.9 488.182 1019.18 488.534 1019.53L489.198 1020.2C489.399 1020.4 489.62 1020.58 489.858 1020.73L504.013 1029.86C504.657 1030.28 505.169 1030.87 505.486 1031.57L507.141 1035.21C507.378 1035.73 507.5 1036.3 507.5 1036.87V1041.13C507.5 1041.38 507.477 1041.62 507.432 1041.86L500.5 1079M463 1015L468.5 1011.5L475.604 1007.71C475.867 1007.57 476.145 1007.46 476.433 1007.38L481.5 1006" stroke="black" stroke-width="2" stroke-linecap="round"/>
<path d="M482.5 974.5L485.323 981.087C485.441 981.361 485.589 981.622 485.764 981.864L489.5 987L492.583 990.469C493.177 991.137 493.977 991.587 494.857 991.744C496.763 992.083 499.184 992.5 499.5 992.5C499.9 992.5 504.333 993.833 506.5 994.5L515.262 996.345C515.75 996.447 516.252 996.458 516.744 996.376L524.251 995.125C524.746 995.042 525.221 994.867 525.651 994.609L530 992M658 914L654 916L639.5 923.5L597 945L587 950.5L562 968.5L535 989L530 992M530 992L537.635 990.569C537.878 990.523 538.124 990.5 538.372 990.5H544.351C544.781 990.5 545.208 990.569 545.616 990.705L548.958 991.819C549.317 991.939 549.658 992.11 549.97 992.325L554.162 995.228C555.304 996.018 556.775 996.16 558.047 995.601L596.441 978.746C596.811 978.583 597.205 978.477 597.607 978.433L600.118 978.154C601.013 978.054 601.916 978.26 602.679 978.737L604.804 980.065C605.263 980.352 605.655 980.733 605.955 981.182V981.182C606.875 982.563 606.796 984.38 605.76 985.675L605.732 985.71C605.578 985.903 605.405 986.081 605.217 986.241L595.5 994.5L584.389 1003.2C584.131 1003.4 583.848 1003.57 583.548 1003.7L579.913 1005.32C579.639 1005.44 579.379 1005.59 579.138 1005.77L578.412 1006.32C577.816 1006.76 577.107 1007.03 576.365 1007.1L538 1010.5L516.678 1010.98C516.229 1010.99 515.785 1011.08 515.365 1011.24L512.537 1012.3C512.181 1012.43 511.846 1012.62 511.541 1012.84L510 1014L508.5 1015M508.5 1015L506.214 1013.48C505.743 1013.16 505.211 1012.95 504.653 1012.86L503.026 1012.59C502.677 1012.53 502.322 1012.52 501.97 1012.55L497.5 1013H494.903C493.995 1013 493.114 1012.69 492.404 1012.12L491 1011L481.801 1005.48C481.274 1005.16 480.827 1004.73 480.495 1004.21L476.5 998L473 993L469.5 989M508.5 1015L522.924 1024.62C523.305 1024.87 523.727 1025.06 524.172 1025.17L526.876 1025.84C527.289 1025.95 527.717 1025.98 528.142 1025.95L541 1025M541 1025L562 1019.5L648.64 1001.61C651.292 1001.06 653.711 1003.25 653.427 1005.94L652.039 1019.13C652.013 1019.38 651.964 1019.62 651.892 1019.86L650.729 1023.74C650.579 1024.24 650.307 1024.69 649.937 1025.06V1025.06C649.338 1025.66 648.522 1026 647.675 1025.99L541 1025Z" stroke="black" stroke-width="2" stroke-linecap="round"/>
<path d="M552 979.5L557.892 980.406C558.295 980.468 558.705 980.468 559.108 980.406L564.567 979.567C564.855 979.522 565.137 979.447 565.408 979.341L582.626 972.646C582.875 972.549 583.133 972.477 583.396 972.432L597.049 970.078C597.349 970.026 597.641 969.94 597.922 969.822L605.789 966.51C606.545 966.192 607.411 966.274 608.093 966.729V966.729C608.362 966.908 608.592 967.138 608.771 967.407L608.811 967.467C609.25 968.125 609.391 968.937 609.199 969.704L608.844 971.122C608.622 972.013 608.099 972.801 607.364 973.352L602.727 976.829C602.576 976.943 602.433 977.067 602.299 977.201L601.5 978M600 992L604.487 992.449C604.828 992.483 605.171 992.473 605.509 992.42L614.5 991L638 986L652 982L656.5 980.5M684.5 915L671 923.5L664.5 927.5C664 927.833 662.9 928.6 662.5 929C662.148 929.352 661.511 931.022 661.137 932.099C661.044 932.365 660.984 932.641 660.953 932.921L660.5 937V941.5L657.5 980.5L656.5 997.5V999.5M656.5 999.5L654.397 1001.18C654.133 1001.39 653.898 1001.64 653.695 1001.91L652.5 1003.5M656.5 999.5L658.414 997.203C658.8 996.74 659.076 996.197 659.222 995.612L660.5 990.5L662.848 984.395C662.949 984.132 663.022 983.86 663.066 983.582L664.5 974.5L664.964 968.002C664.988 967.669 665.053 967.34 665.159 967.022L666 964.5L667.381 958.978C667.46 958.66 667.5 958.335 667.5 958.008V949.35C667.5 949.117 667.52 948.885 667.561 948.655L668.92 940.955C668.973 940.653 669.061 940.357 669.182 940.075L670.379 937.283C670.459 937.095 670.555 936.913 670.663 936.739L672.716 933.455C672.904 933.153 673.133 932.878 673.394 932.636L679.225 927.254C679.408 927.085 679.606 926.934 679.818 926.801L682.77 924.957C683.251 924.656 683.663 924.256 683.978 923.783L684.96 922.31C685.315 921.778 685.537 921.168 685.607 920.533L685.87 918.174C685.955 917.408 685.817 916.633 685.472 915.943L685 915M685 921.5L686.997 925.094C687.327 925.688 687.5 926.357 687.5 927.037V937V946.275C687.5 946.754 687.586 947.23 687.755 947.679L688.524 949.731C688.833 950.554 689.404 951.252 690.149 951.718L693 953.5L699 958.5L702 961M702 961L699.039 1013.81C699.014 1014.26 699.135 1014.7 699.384 1015.08V1015.08C699.769 1015.65 700.417 1016 701.111 1016H702H703.5M702 961V959.657C702 958.596 702.421 957.579 703.172 956.828L712.041 947.959C712.345 947.655 712.598 947.304 712.79 946.919L714.125 944.251C714.372 943.756 714.514 943.215 714.542 942.662L715.485 923.806C715.495 923.602 715.521 923.4 715.562 923.2L719 906.5L719.685 902.044C719.883 900.762 720.69 899.655 721.85 899.075L726 897C734.333 893.5 751.1 886.4 751.5 886C751.9 885.6 772.667 879.5 783 876.5L805.5 867M703.5 1016L900.5 865L908.198 858.264C908.399 858.088 908.617 857.933 908.848 857.801L918.305 852.397C918.764 852.135 919.27 851.966 919.794 851.901L931 850.5L939.5 849L951 848L974.5 849L1116 858L1151 865L1427 892.5M703.5 1016V1011L708.409 962.887C708.469 962.303 708.657 961.739 708.959 961.235L709.784 959.86C709.928 959.621 710.096 959.397 710.286 959.193L722.645 945.918C723.202 945.32 723.562 944.567 723.677 943.758L723.96 941.781C723.987 941.594 724 941.405 724 941.216V931.5L726 915L726.905 907.31C726.968 906.775 727.138 906.259 727.404 905.792L728.472 903.924C728.818 903.318 729.316 902.814 729.917 902.461L737.5 898L783.5 877" stroke="black" stroke-width="2" stroke-linecap="round"/>
<path d="M444.5 575L445.905 569.848C445.968 569.616 446.052 569.391 446.156 569.175L451.109 558.817C451.367 558.279 451.741 557.806 452.204 557.431L464.244 547.706C464.415 547.569 464.596 547.446 464.786 547.338L477.806 539.96C478.875 539.354 480.164 539.273 481.301 539.741L487.268 542.199C487.751 542.398 488.269 542.5 488.791 542.5H492.5L513.091 540.106C513.689 540.036 514.264 539.832 514.773 539.509L545.5 520L553.137 516.363C554.814 515.565 556.84 516.05 558 517.5V517.5M414 585V607.5V618.5M430 568L431.49 571.353C431.822 572.1 431.917 572.929 431.764 573.731C430.888 578.321 429.5 585.77 429.5 586.5C429.5 587.29 422.994 604.412 419.622 613.182C419.539 613.397 419.44 613.6 419.321 613.798L416.834 617.943C416.613 618.312 416.334 618.643 416.007 618.922L413 621.5M488 839.5L514.5 793.5" stroke="black" stroke-width="2" stroke-linecap="round"/>
<path d="M348 535C347.167 538.333 345.4 545.2 345 546C344.727 546.546 344.438 547.902 344.229 549.078C344.071 549.971 344.377 550.877 345.019 551.519L345.116 551.616C345.368 551.868 345.677 552.059 346.016 552.172V552.172C346.642 552.381 347.327 552.311 347.898 551.98L356.5 547L377 534.5L394.5 526L417 513L445 499.5L476 485.5L522 465.5L552.5 453L584 441.5L610 433L626 429L632.5 426.5L639 424L642 423M642 423L657.381 407.619C657.46 407.54 657.529 407.452 657.586 407.356L657.695 407.174C658.231 406.282 659.555 406.389 659.942 407.354V407.354C659.98 407.451 660.007 407.552 660.021 407.655L660.065 407.984C660.472 411.037 664.079 412.449 666.45 410.484L731 357L735.5 353.5M642 423L634 430.5L626.882 438.093C626.628 438.363 626.339 438.597 626.021 438.787L621.961 441.223C621.655 441.407 621.326 441.549 620.982 441.645L609.368 444.897C609.123 444.965 608.892 445.054 608.664 445.168C598.553 450.218 578.687 459.896 577.5 459.5C576.3 459.1 538 475.333 519 483.5L476 504L394.5 541L376.5 551L366.178 558.507C365.731 558.832 365.361 559.25 365.093 559.733L363.981 561.735C363.46 562.671 363.88 563.852 364.875 564.25V564.25C365.278 564.411 365.725 564.419 366.134 564.274L372.5 562L378.5 560.5L386.5 558M735.5 283L723.851 261.644C723.619 261.218 723.312 260.839 722.944 260.522C721.691 259.445 719.844 257.844 719.5 257.5C719.25 257.25 718.466 256.987 717.709 256.784C716.928 256.574 716.102 256.671 715.358 256.989L713 258L695.5 268.5L688 273L679.296 277.123C678.772 277.371 678.307 277.731 677.936 278.177L676.61 279.768C676.209 280.249 675.927 280.818 675.786 281.429L674.5 287M674.5 287L668.766 295.123C668.589 295.374 668.384 295.603 668.155 295.806L665.137 298.49C664.404 299.14 663.459 299.5 662.479 299.5H658.06C657.689 299.5 657.319 299.448 656.961 299.346L652.247 297.999C651.137 297.682 649.944 297.86 648.975 298.487L642.248 302.84C642.083 302.946 641.926 303.065 641.778 303.195L629.5 314L618 327M674.5 287L670.568 332M666 380V380.368C666 382.213 667.734 383.567 669.523 383.119V383.119C669.839 383.04 670.138 382.908 670.409 382.728L672.719 381.187C673.832 380.446 674.5 379.197 674.5 377.859V375L678.5 332L683 293V288.108C683 287.383 683.197 286.672 683.57 286.05L684.13 285.116C684.375 284.709 684.69 284.348 685.061 284.051L688.882 280.995C689.282 280.674 689.779 280.5 690.292 280.5V280.5C691.047 280.5 691.751 280.123 692.17 279.495L693.5 277.5M666 380L666.5 369.25M666 380L656 384L630.194 398.607C629.736 398.866 629.231 399.033 628.708 399.097L609 401.5V401.5C608.301 401.5 607.972 400.636 608.495 400.171L611.5 397.5L629.5 384L639 375M618 327L614.412 331.783C613.825 332.567 613.545 333.539 613.626 334.516L613.953 338.437C613.984 338.81 614.068 339.178 614.201 339.528L617.88 349.186C617.96 349.395 618.057 349.597 618.171 349.79L627.795 366.152C627.931 366.383 628.09 366.6 628.27 366.8L632.035 370.983C632.343 371.325 632.707 371.611 633.112 371.829L639 375M618 327L625 330.5M639 375L643.512 376.641C644.16 376.876 644.857 376.94 645.537 376.827L649.95 376.092C650.315 376.031 650.67 375.92 651.004 375.761L660 371.5L664 370L666.5 369.25M639 375L641.694 373.204C641.898 373.068 642.113 372.952 642.338 372.855L643.076 372.539C644.546 371.909 645.5 370.463 645.5 368.862V367.5V358.211C645.5 357.421 645.266 356.649 644.828 355.992L640.5 349.5L632.5 338.5L625 330.5M666.5 369.25L667 358.5L670 338.5L670.568 332M625 330.5L626.229 329.681C627.223 329.018 628.561 329.247 629.277 330.203V330.203C629.425 330.4 629.604 330.571 629.807 330.71L638.631 336.748C638.876 336.915 639.102 337.11 639.304 337.327L645.224 343.703C645.408 343.9 645.611 344.079 645.83 344.236L647.957 345.755C648.635 346.24 649.448 346.5 650.282 346.5H650.5C651.157 346.5 651.803 346.338 652.382 346.029L658.475 342.78C658.823 342.594 659.142 342.358 659.421 342.079L666.753 334.747C666.917 334.583 667.096 334.433 667.286 334.3L670.568 332M386.5 558L393.5 560.5L421 574.5L423.5 576M386.5 558L394.5 557L404.604 554.594C404.867 554.532 405.124 554.442 405.369 554.328L412.5 551L421 546L429.5 541M423.5 576L423.3 577.001C423.107 577.966 422.565 578.826 421.777 579.417L419.289 581.284C419.097 581.428 418.892 581.554 418.677 581.661L415.845 583.078C415.289 583.355 414.677 583.5 414.056 583.5H398.896C398.322 583.5 397.772 583.728 397.366 584.134V584.134C396.829 584.671 396.613 585.451 396.797 586.188L397.4 588.6C397.466 588.866 397.56 589.125 397.68 589.372L405 604.5L409 611L411 614L412.647 617.293C413.186 618.373 413.21 619.638 412.71 620.737L411.541 623.31C411.189 624.083 410.601 624.724 409.861 625.141L403 629L396.755 631.677C396.257 631.89 395.721 632 395.179 632H387.444C386.823 632 386.211 631.855 385.655 631.578L380.819 629.159C380.607 629.053 380.386 628.966 380.158 628.9L372 626.5M423.5 576L426.054 573.871C426.35 573.625 426.608 573.337 426.822 573.017L427.828 571.508C428.266 570.851 428.5 570.079 428.5 569.289V565.5L429 557.5L429.5 545.5V541M429.5 541L439 534.5L460 521.5L476 513M477 527.5L484.663 514.568C484.886 514.192 485.169 513.855 485.501 513.57L488.035 511.398C488.343 511.134 488.69 510.919 489.063 510.759L495.5 508L546.232 484.624C546.41 484.541 546.583 484.446 546.747 484.339L559.5 476L567.362 472.3C567.784 472.102 568.238 471.978 568.703 471.936L572.667 471.576C573.216 471.526 573.77 471.59 574.294 471.765L574.603 471.868C575.797 472.266 576.734 473.203 577.132 474.397L577.15 474.449C577.379 475.137 577.417 475.874 577.26 476.582L576.753 478.863C576.588 479.606 576.214 480.286 575.676 480.824L570 486.5L562.599 492.513C562.203 492.835 561.873 493.229 561.625 493.675L559.862 496.848C559.623 497.279 559.306 497.662 558.927 497.978L554.008 502.077C553.672 502.357 553.292 502.58 552.883 502.737L547 505L488.043 532.744C487.683 532.914 487.3 533.029 486.906 533.085L484.281 533.46C484.094 533.487 483.905 533.5 483.716 533.5H479.944C479.323 533.5 478.711 533.355 478.155 533.078L476.222 532.111C476.075 532.037 475.941 531.941 475.825 531.825V531.825C475.338 531.338 475.237 530.585 475.579 529.987L477 527.5Z" stroke="black" stroke-width="2" stroke-linecap="round"/>
<path d="M640.5 740.5L643.967 742.041C644.642 742.341 645.388 742.448 646.12 742.351L651.654 741.613C652.212 741.538 652.747 741.347 653.226 741.052L699.155 712.713C699.384 712.571 699.599 712.407 699.796 712.222L708 704.5L748 657L763 639.5M630 747V741.243C630 740.752 630.09 740.265 630.267 739.807L632.5 734L653 686.5L655.377 679.37C655.459 679.124 655.567 678.888 655.701 678.665V678.665C656.479 677.369 656.351 675.722 655.383 674.56L654.806 673.867C654.603 673.623 654.371 673.404 654.116 673.215L639.293 662.217C639.098 662.073 638.891 661.946 638.673 661.839L610.5 648L583.334 635.158C583.112 635.053 582.88 634.969 582.643 634.906L573.5 632.5M573.5 632.5L498 602C493.667 600.667 484.9 597.9 484.5 597.5C484.115 597.115 476.608 595.158 472.476 594.119C472.159 594.04 471.835 594 471.508 594H468.062C467.366 594 466.682 594.182 466.078 594.527L464.363 595.507C463.796 595.831 463.317 596.288 462.968 596.84L435.336 640.469C435.113 640.821 434.837 641.136 434.518 641.402L432.812 642.824C432.312 643.24 431.623 643.349 431.019 643.108V643.108C430.161 642.764 429.711 641.82 429.985 640.937L449.418 578.263C449.473 578.088 449.541 577.917 449.623 577.753L450.081 576.839C450.34 576.32 450.301 575.702 449.98 575.22V575.22C449.68 574.77 449.175 574.5 448.635 574.5H447V574.5C445.511 574.5 444.192 575.463 443.739 576.881L421.19 647.406C421.064 647.8 421 648.21 421 648.624V651V655.351C421 655.781 421.069 656.208 421.205 656.616L422.331 659.992C422.443 660.329 422.6 660.65 422.797 660.946L424.322 663.234C424.441 663.411 424.544 663.597 424.633 663.791L435 686.5L449.5 709.5L463.5 726L480 745.5L492.65 757.176C492.882 757.391 493.089 757.633 493.264 757.897C496.016 762.024 501.226 769.838 502 771C502.8 772.2 508.333 782.833 511 788L513.141 792.015C514.172 793.947 516.564 794.691 518.508 793.685L529.148 788.182C529.382 788.061 529.604 787.917 529.809 787.753L547 774L564 757.5L573.226 747.303C573.408 747.102 573.569 746.882 573.707 746.648L588.5 721.5L602.5 693L606.643 684.714C607.116 683.768 608.268 683.384 609.214 683.857V683.857C609.976 684.238 610.395 685.076 610.243 685.914L609.5 690L605 712.5L602.949 720.5M573.5 632.5L574.694 630.51C574.897 630.172 575.049 629.805 575.144 629.423L576.381 624.478C576.46 624.16 576.5 623.835 576.5 623.508V619.5M636.5 906.5L583 937L575.895 940.109C575.307 940.366 574.666 940.478 574.025 940.435L567.5 940H565.956C564.722 940 563.557 939.43 562.799 938.456L560.998 936.14C560.669 935.718 560.429 935.234 560.291 934.716L535.074 840.278C535.025 840.093 534.989 839.904 534.966 839.714L534.104 832.386C534.036 831.802 534.096 831.211 534.282 830.654L534.657 829.53C534.881 828.856 535.282 828.253 535.817 827.785L543 821.5L551.276 814.198C551.425 814.066 551.564 813.924 551.692 813.771L562 801.5L574.5 788L581 779L586.788 769.836C586.929 769.613 587.048 769.376 587.142 769.129L593.5 752.5L600 732L602.949 720.5M515 796L525.671 815.403C525.889 815.798 526.038 816.227 526.112 816.673L526.5 819M526.5 819L562.278 787.695C562.426 787.565 562.564 787.425 562.691 787.275L570.687 777.869C570.895 777.624 571.073 777.355 571.216 777.067L576 767.5L586 752.5L594.5 735.5L599.5 725.5L602.949 720.5M526.5 819L517.298 831.108C517.1 831.368 516.935 831.652 516.806 831.953L515.823 834.245C515.61 834.743 515.5 835.279 515.5 835.821V840V841.5M515.5 841.5H516.359C517.697 841.5 518.946 842.168 519.687 843.281L519.828 843.492C520.266 844.149 520.5 844.921 520.5 845.711V847.051C520.5 847.349 520.533 847.647 520.599 847.938L542.93 946.193C542.977 946.397 543.039 946.598 543.117 946.792L544.714 950.785C544.903 951.257 545 951.761 545 952.27V952.392C545 953.117 544.803 953.828 544.43 954.45L543.81 955.483C543.604 955.826 543.353 956.132 543.055 956.399C536.422 962.348 523.891 973.5 523.5 973.5C523.1 973.5 516.667 978.5 513.5 981L508.076 984.616C507.695 984.87 507.273 985.057 506.828 985.168L503.978 985.881C503.66 985.96 503.335 986 503.008 986H497.149C496.719 986 496.292 985.931 495.884 985.795L493.5 985M515.5 841.5C511.5 843.833 503.4 848.5 503 848.5C502.6 848.5 496.833 852.833 494 855L488.231 858.994C487.755 859.323 487.19 859.5 486.611 859.5H486.421C485.539 859.5 484.722 859.037 484.269 858.281V858.281C483.795 857.492 483.792 856.506 484.26 855.713L488.834 847.974C489.556 846.751 489.576 845.237 488.887 843.996L488.003 842.406C487.673 841.812 487.5 841.143 487.5 840.463V837.117C487.5 836.708 487.437 836.302 487.314 835.912L484.598 827.31C484.533 827.104 484.451 826.903 484.353 826.71L461.5 781.5L456.5 772L450.5 763.5L409 712.5L393.5 690L385.212 676.836C385.071 676.613 384.953 676.376 384.859 676.129L381 666C377.667 659.333 371 645.9 371 645.5C371 645.125 370.413 637.67 370.065 633.311C370.022 632.776 370.088 632.237 370.257 631.728L371.088 629.235C371.633 627.602 371.071 625.803 369.694 624.77L364.236 620.677C364.079 620.559 363.913 620.453 363.741 620.36L352 614L347.32 611.873C346.78 611.627 346.192 611.505 345.6 611.515L223 613.5H220.567C219.588 613.5 218.674 613.011 218.131 612.196V612.196C217.451 611.177 217.479 609.842 218.199 608.851L228.145 595.175C228.697 594.416 229.499 593.875 230.41 593.648L232.629 593.093C232.876 593.031 233.128 592.993 233.382 592.979L371 585.5M389.5 626.5L395.41 620.135C395.799 619.716 396.093 619.22 396.274 618.678L396.578 617.765C396.852 616.944 396.852 616.056 396.578 615.235L396.111 613.832C396.037 613.611 395.944 613.397 395.833 613.192L383.466 590.36C383.16 589.795 382.721 589.314 382.186 588.958V588.958C380.862 588.075 379.138 588.075 377.814 588.958L377.257 589.329C377.086 589.443 376.924 589.57 376.773 589.708L361.672 603.551C360.156 604.941 359.941 607.254 361.175 608.9L361.639 609.519C361.878 609.838 362.164 610.119 362.486 610.354L367.5 614L369.23 615.236C370.334 616.024 371.762 616.199 373.023 615.701L390 609M576.5 619.5L575.118 615.353C575.039 615.118 574.983 614.877 574.949 614.632L571.5 589.5L569.5 570C568.833 565.667 567.4 556.6 567 555C566.6 553.4 565.167 546.667 564.5 543.5C563 538 559.9 526.8 559.5 526C559.1 525.2 558.333 520.333 558 518M576.5 619.5L580.244 612.011C580.414 611.672 580.534 611.311 580.602 610.938L581.5 606L582.956 596.295C582.985 596.099 583 595.9 583 595.702V583L581.5 559C580.833 554.5 579.4 545.3 579 544.5C578.5 543.5 576.5 534 576.5 531.5C576.5 529.5 574.5 514 573.5 506.5" stroke="black" stroke-width="2" stroke-linecap="round"/>
<path d="M708.5 868L706.867 870.45C706.625 870.813 706.313 871.125 705.95 871.367V871.367C705.334 871.777 704.599 871.969 703.862 871.912L698.896 871.53C698.633 871.51 698.376 871.465 698.122 871.393C691.506 869.524 678.892 865.892 678.5 865.5C678.186 865.186 676.409 863.409 675.016 862.016C674.381 861.381 674.106 860.471 674.282 859.591V859.591C674.422 858.892 674.833 858.278 675.426 857.883L677.17 856.72C677.39 856.574 677.594 856.406 677.78 856.22L681.541 852.459C681.845 852.155 682.196 851.902 682.581 851.71L688 849L693 846M674.5 858L674 850.5L674.465 841.661C674.488 841.223 674.583 840.792 674.746 840.386L677.39 833.775C677.463 833.592 677.55 833.415 677.649 833.245L681 827.5M640 820.5L624.787 834.241C624.596 834.413 624.422 834.604 624.268 834.809L623.8 835.433C623.281 836.126 623 836.968 623 837.833V839.5L626.853 876.588C626.948 877.502 627.354 878.354 628.004 879.004L628.5 879.5M628.5 879.5L628.926 879.358C629.628 879.124 630.252 878.7 630.727 878.132L645.5 860.5M628.5 879.5L628 885V893.257C628 893.748 628.09 894.235 628.267 894.693L630.145 899.577C630.378 900.183 630.755 900.724 631.244 901.151L634.5 904L636.318 905.455C636.767 905.814 637.289 906.072 637.847 906.212L640.717 906.929C640.905 906.976 641.09 907.037 641.27 907.111L657.053 913.61C657.674 913.866 658.35 913.961 659.018 913.887L661.918 913.565C662.304 913.522 662.681 913.423 663.039 913.271L695.5 899.5L740.695 878.641C740.898 878.547 741.093 878.437 741.277 878.31L750.5 872M661 845L650.68 854.494C649.657 855.436 648.003 855.009 647.563 853.689V853.689C647.521 853.563 647.492 853.434 647.477 853.302L644 823V819.003C644 818.034 644.349 817.096 645.001 816.38C646.255 815.004 647.887 813.307 648.5 813C649.181 812.66 651.116 810.606 652.397 809.18C652.797 808.734 653.286 808.378 653.836 808.142L654.011 808.067C655.514 807.422 657.258 807.758 658.415 808.915L658.756 809.256C659.244 809.744 659.597 810.349 659.782 811.014L666.786 836.228C666.927 836.738 666.966 837.27 666.901 837.795L666.715 839.28C666.578 840.378 665.993 841.369 665.099 842.019L661 845Z" stroke="black" stroke-width="2" stroke-linecap="round"/>
<path d="M606 208.5L611.652 204.261C611.883 204.088 612.133 203.94 612.396 203.82L623 199L646.5 187.5L678 173.5L704 163L718 157.5L733 152L751 147L765.5 144L781 141.5L802 139L821 138H834H835.5M650.5 239.5L667.5 227L681 218.5L712.5 202.5L734.5 193L753.675 184.15C753.891 184.05 754.116 183.97 754.347 183.91L767.5 180.5L787 176.5L797.211 173.583C797.403 173.528 797.6 173.487 797.798 173.462L813 171.5L832 169L849.5 167.5L866.5 166H883H900.5L922 167.5L945 171.5L961.085 173.45C961.361 173.483 961.633 173.545 961.896 173.635L982 180.5L1007 187.5L1047.5 199L1080.5 210.5L1117 227L1177.02 254.779C1177.34 254.926 1177.64 255.113 1177.9 255.336L1179.06 256.301C1179.97 257.061 1180.5 258.186 1180.5 259.373V259.5M1180.5 259.5H1148L1144.68 259.915C1144.23 259.971 1143.79 260.104 1143.39 260.306L1140.75 261.626C1140.25 261.873 1139.82 262.219 1139.46 262.643L1137.73 264.721C1137.58 264.906 1137.41 265.078 1137.22 265.233L1134.5 267.5M1180.5 259.5L1187.3 259.954C1187.76 259.984 1188.23 259.935 1188.67 259.809L1190.5 259.285C1191.16 259.098 1191.75 258.748 1192.23 258.267L1192.26 258.244C1192.74 257.756 1193.1 257.151 1193.28 256.486L1195.42 248.784C1195.47 248.595 1195.54 248.41 1195.62 248.23L1199.27 240.008C1199.42 239.671 1199.53 239.315 1199.58 238.949L1200 236M1134.5 267.5H1128.32C1128.11 267.5 1127.89 267.482 1127.68 267.448L1051.5 255L1014.5 250L1007.51 248.135C1007.17 248.045 1006.82 248 1006.48 248H1005.75M1134.5 267.5L1203.5 281M762 357.5V357.5C762.96 357.5 763.882 357.118 764.561 356.439L766.205 354.795C766.401 354.599 766.616 354.424 766.848 354.273C770.796 351.704 778.335 346.888 779.5 346.5C780.7 346.1 799 332.333 808 325.5L822 315L837.5 304L846.757 297.666C846.919 297.555 847.088 297.457 847.264 297.371L866.5 288L878.5 281L880 280.288M762 357.5L761.5 353.5L758.5 202.5M762 357.5V357.5C762 358.14 761.752 358.761 761.268 359.181C760.785 359.601 760.253 360 760 360C759.91 360 759.802 360.033 759.685 360.089C758.817 360.501 757.96 361 757 361V361H755.649C755.219 361 754.793 360.926 754.376 360.823C753.746 360.666 752.848 360.5 752 360.5C751.287 360.5 750.539 360.5 749.944 360.5C749.323 360.5 748.711 360.645 748.155 360.922L745 362.5L742.5 363.5L741.546 363.818C740.27 364.243 738.866 363.993 737.816 363.153V363.153C737.281 362.725 736.866 362.166 736.612 361.53L736.286 360.715C736.097 360.243 736 359.739 736 359.23V349.5V219V216.56C736 216.189 736.052 215.819 736.154 215.461L736.754 213.361C736.916 212.794 737.201 212.27 737.59 211.826L740.5 208.5L746.093 202.907C746.363 202.637 746.67 202.407 747.006 202.224L751.105 199.988C751.692 199.668 752.351 199.5 753.02 199.5H753.056C753.677 199.5 754.289 199.645 754.845 199.922L755.621 200.31C755.873 200.436 756.111 200.589 756.331 200.765L758.5 202.5M758.5 202.5L758.8 202.1C759.555 201.093 760.741 200.5 762 200.5H763.851C764.281 200.5 764.708 200.569 765.116 200.705L770.5 202.5L840.5 216L861.639 221.285C862.145 221.411 862.5 221.866 862.5 222.387V222.387C862.5 222.462 862.507 222.537 862.522 222.61L863 225M863 225L862.5 229V234.764C862.5 235.251 862.589 235.733 862.762 236.188L866.358 245.627C866.452 245.875 866.522 246.131 866.565 246.393C866.74 247.47 867 249.147 867 249.5C867 250 868.5 253.5 869 254.5C869.393 255.285 874.957 268.342 877.841 275.127C877.948 275.378 878.027 275.635 878.08 275.902L878.348 277.24C878.448 277.742 878.644 278.22 878.925 278.649L880 280.288M863 225L868.5 224.5L881.5 222.5L893.5 221.5L904 220.5H914.5L923 219.5L941 218.5L961.5 219L974 219.5H975C976.259 219.5 977.445 220.093 978.2 221.1L978.275 221.201C978.425 221.4 978.593 221.585 978.776 221.753L996 237.5L1000.75 241.774C1000.92 241.924 1001.07 242.089 1001.21 242.265L1005.75 248M880 280.288L898.5 271.5L911.5 264L925 258L939 252L953 248L965.5 245.5L975.205 244.044C975.401 244.015 975.6 244 975.798 244H981.616C981.872 244 982.126 244.024 982.377 244.073L997.5 247L1004.22 247.96C1004.41 247.987 1004.59 248 1004.78 248H1005.75M1200 236L1198.67 234.227C1198.56 234.076 1198.43 233.933 1198.3 233.799L1197.23 232.731C1197.08 232.577 1196.91 232.436 1196.74 232.31L1177.5 218.5L1125.5 189.5L1061 152L1017.5 131.5L975.5 114C964.667 110 942.6 101.9 941 101.5C939.4 101.1 931 99.6667 927 99C920.5 97.8333 906.8 95.3 904 94.5C901.2 93.7 888.833 92.5 883 92L868.5 90.5H829H804.5L797.5 91.375M1200 236L1201.5 232.5C1202.17 231.167 1203.5 228.4 1203.5 228C1203.5 227.5 1205.5 222.5 1205.5 222C1205.5 221.5 1206.5 218.5 1206.5 217.5C1206.5 216.839 1206.95 215.679 1207.3 214.919C1207.43 214.638 1207.6 214.38 1207.8 214.143L1210 211.5L1211.69 209.81C1211.9 209.604 1212.12 209.421 1212.37 209.264L1217.5 206L1224.5 202C1230.67 199 1243.1 193 1243.5 193C1243.81 193 1246.17 192.19 1248.06 191.516C1248.99 191.187 1250 191.202 1250.92 191.567L1250.96 191.583C1251.64 191.856 1252.23 192.31 1252.67 192.897L1252.7 192.933C1253.22 193.626 1253.5 194.468 1253.5 195.333V197.5M608.5 153L610 152L616 148.5L630.621 139.24C630.873 139.081 631.142 138.95 631.423 138.85L646.5 133.5L672.5 122.5L689.5 116L702 110.5L718 106L729.705 101.61C729.901 101.537 730.103 101.479 730.308 101.437L752 97L766.5 94.5L792.5 92L797.5 91.375M797.5 91.375L801.597 83.7508C801.863 83.2558 802.23 82.8224 802.674 82.4789L813 74.5L842.5 51.5L875 26.5L875.503 25.9967C876.141 25.3585 876.5 24.493 876.5 23.5905V23.5905C876.5 22.8813 876.278 22.1898 875.866 21.6126L874.684 19.9574C874.237 19.3324 873.62 18.8491 872.907 18.5653L832.802 2.61996C832.601 2.54012 832.407 2.44413 832.222 2.33295L830 1M867.5 1L891.814 10.2391C892.267 10.4116 892.749 10.5 893.234 10.5H894.851C895.281 10.5 895.708 10.5693 896.116 10.7053L898.5 11.5L938 27.5L980.5 44L1108 101.5L1197 152L1229.5 166L1285.5 193L1293.47 195.657C1294.14 195.881 1294.75 196.282 1295.22 196.817L1296.32 198.077C1297.34 199.249 1297.59 200.911 1296.96 202.335L1296.58 203.189C1296.21 204.036 1295.55 204.727 1294.72 205.142L1290 207.5L1257.32 220.87C1257.11 220.956 1256.89 221.016 1256.66 221.048V221.048C1254.99 221.287 1253.5 219.992 1253.5 218.307V197.5M1253.5 197.5L1241.81 201.883C1241.6 201.961 1241.4 202.056 1241.21 202.166C1237.95 204.046 1231.78 207.5 1231 207.5C1230.24 207.5 1226.11 210.807 1223.84 212.71C1223.61 212.903 1223.41 213.121 1223.23 213.362L1220.98 216.354C1220.66 216.78 1220.44 217.267 1220.3 217.781C1219.92 219.167 1219.33 221 1219 221C1218.5 221 1217.5 226 1217.5 227C1217.5 227.772 1215.02 234.197 1213.64 237.64C1213.55 237.88 1213.48 238.128 1213.43 238.381L1210.07 256.108C1210.02 256.369 1209.95 256.624 1209.85 256.87L1203.68 272.046C1203.56 272.347 1203.48 272.663 1203.43 272.985L1202.72 277.987C1202.58 278.961 1202.8 279.953 1203.35 280.772L1203.5 281M1203.5 281L1211 283L1219 284.5L1231.24 285.912C1231.74 285.97 1232.23 286.123 1232.68 286.364L1238.5 289.5C1240.5 290.667 1244.6 293.2 1245 294C1245.37 294.746 1247.8 299.605 1249.21 302.42C1249.4 302.805 1249.53 303.217 1249.59 303.643L1251 313.5M1251 313.5V322M1251 313.5L1253.5 222M1251 322L1246.5 331.5L1219.19 406.488C1219.06 406.828 1218.89 407.148 1218.69 407.445C1217.79 408.741 1216.36 410.935 1216 412C1215.6 413.2 1214.5 417.833 1214 420L1213.18 424.101C1213.06 424.693 1212.81 425.25 1212.45 425.731L1199 443.5L1185.53 459.376C1185.18 459.788 1184.75 460.124 1184.27 460.366L1183 461M1251 322L1250 332V338V457.44C1250 457.811 1249.95 458.181 1249.85 458.539L1249 461.5M1183 461H1180.65C1180.22 461 1179.79 461.069 1179.38 461.205L1177 462L1173.5 463.5L1160.87 467.387C1160.62 467.462 1160.39 467.561 1160.16 467.681L1145.5 475.5L1109.84 489.862C1109.61 489.954 1109.4 490.066 1109.19 490.198L1104.56 493.143C1104.19 493.379 1103.86 493.675 1103.58 494.019L1102.74 495.078C1102.26 495.68 1101.61 496.13 1100.88 496.374L1099.62 496.795C1099.21 496.931 1098.78 497 1098.35 497H1096.65C1096.22 497 1095.79 496.931 1095.38 496.795L1093 496M1183 461L1185.72 463.72C1185.91 463.906 1186.07 464.11 1186.22 464.33L1188 467L1196 483L1208.5 518.5L1239 597.5L1242 607.5L1244.86 618.947C1244.95 619.314 1245.1 619.666 1245.29 619.992L1248.19 624.961C1248.39 625.318 1248.55 625.705 1248.63 626.109C1248.98 627.736 1249.5 630.296 1249.5 631C1249.5 631.778 1249.5 638.932 1249.5 642.695C1249.5 642.899 1249.48 643.101 1249.45 643.302L1248.65 648.51C1248.55 649.16 1248.29 649.775 1247.9 650.302L1233.5 669.5L1165.5 769.5L1148.85 788.597C1148.62 788.864 1148.35 789.1 1148.06 789.297L1144.58 791.616C1144.2 791.87 1143.77 792.057 1143.33 792.168L1140.35 792.913C1140.12 792.971 1139.88 793.008 1139.64 793.024L1132.5 793.5H1120H980L969.5 793M1093 496L1066.5 546L1062.24 555.467C1062.08 555.82 1061.87 556.149 1061.62 556.442L1046 574.5L1041.5 578.5L1038.95 580.682C1038.33 581.214 1037.56 581.544 1036.75 581.625L1033 582H1026L837.5 580H830.831C830.611 580 830.391 579.982 830.173 579.946L828.462 579.66C827.83 579.555 827.232 579.299 826.72 578.915L825.727 578.171C825.576 578.057 825.433 577.933 825.299 577.799L823.959 576.459C823.655 576.155 823.402 575.804 823.21 575.419L822 573L761.631 407.36C761.544 407.121 761.434 406.89 761.303 406.672L759.07 402.95C758.697 402.328 758.5 401.617 758.5 400.892V397.944C758.5 397.323 758.645 396.711 758.922 396.155L759.792 394.415C759.93 394.139 760.1 393.88 760.297 393.643L762.201 391.359C762.4 391.12 762.625 390.906 762.874 390.72L770.17 385.248C770.389 385.083 770.591 384.896 770.773 384.69L781.079 372.979C781.358 372.662 781.685 372.391 782.049 372.176L801 361L880 306L892.5 298L914.5 284.5L932.5 273.5L948 264L954.994 260.27C955.33 260.091 955.689 259.961 956.061 259.883L966.972 257.61C967.323 257.537 967.681 257.511 968.038 257.534L975.5 258L1033 264L1117 275.5L1137.5 280.288L1183 288L1199.6 291.418C1199.87 291.472 1200.14 291.5 1200.41 291.5H1214M1093 496L1099 483L1104.81 472.344C1104.94 472.115 1105.08 471.899 1105.25 471.699L1106.92 469.693C1107.3 469.237 1107.78 468.871 1108.32 468.622L1127 460L1157.5 447.5L1164 444.5L1202.5 427.5M1249 461.5L1253.82 470.175C1253.94 470.391 1254.04 470.618 1254.12 470.853L1254.29 471.384C1254.43 471.792 1254.5 472.219 1254.5 472.649C1254.5 473.346 1254.5 474.205 1254.5 474.5C1254.5 474.873 1253.05 479.343 1252.18 481.969C1252.06 482.322 1251.89 482.656 1251.68 482.962L1246 491.271C1245.67 491.751 1245.45 492.298 1245.35 492.872L1245.05 494.673C1245.02 494.891 1245 495.111 1245 495.331V497.851C1245 498.281 1245.07 498.708 1245.21 499.116L1245.5 500L1246.5 502.5L1281.88 586.703C1281.96 586.901 1282.06 587.091 1282.17 587.273L1284.34 590.739C1284.45 590.913 1284.54 591.094 1284.62 591.283C1285.14 592.52 1286 594.63 1286 595C1286 595.5 1286.5 598.5 1286.5 599C1286.5 599.4 1285.17 602.5 1284.5 604L1260.77 647.004C1260.59 647.333 1260.37 647.635 1260.1 647.9L1259.67 648.328C1258.92 649.079 1258.5 650.096 1258.5 651.157C1258.5 651.755 1258.5 652.299 1258.5 652.5C1258.5 652.885 1258.81 658.233 1258.98 661.162C1258.99 661.388 1258.99 661.613 1258.96 661.838L1258.59 665.177C1258.53 665.72 1258.36 666.245 1258.09 666.719L1256.5 669.5M1249 461.5L1244.49 454M1256.5 669.5L1247.5 685L1244.16 690.249C1244.05 690.416 1243.96 690.591 1243.88 690.772L1242.18 694.595C1242.06 694.864 1241.97 695.145 1241.91 695.434C1241.56 697.199 1241 700.132 1241 700.5C1241 700.9 1241 706.667 1241 709.5V741.5V746.056C1241 746.677 1241.16 747.283 1241.37 747.868C1241.73 748.857 1241.91 750 1241 750C1239.8 750 1238.17 752.333 1237.5 753.5L1212.78 798.991C1212.59 799.329 1212.36 799.638 1212.09 799.91L1209.32 802.676C1208.79 803.214 1208.11 803.588 1207.36 803.753L1204 804.5L1190 806H1183.9C1183.63 806 1183.37 806.026 1183.11 806.078L1179.69 806.762C1178.91 806.917 1178.2 807.298 1177.64 807.856L1176 809.5L1170.11 816.297C1169.71 816.76 1169.42 817.308 1169.26 817.899L1167.16 825.888C1167.05 826.293 1166.88 826.68 1166.66 827.033L1162.5 833.5L1159.93 837.542C1159.34 838.472 1158.39 839.117 1157.3 839.323L1148.5 841C1144.83 841.5 1137.2 842.5 1136 842.5C1134.98 842.5 1130.53 842.5 1127.48 842.5C1126.52 842.5 1125.6 842.158 1124.88 841.537L1119 836.5L1113.5 830.5L1110.17 827.168C1109.73 826.729 1109.19 826.398 1108.6 826.201L1105.65 825.215C1105.22 825.073 1104.77 825.004 1104.32 825.011L913.5 828H910.518C909.85 828 909.193 828.167 908.606 828.487L864.5 852.5L857.673 856.596C857.229 856.863 856.737 857.04 856.225 857.122C853.921 857.495 850.357 858.143 850 858.5C849.632 858.868 847.539 859.547 846.299 859.913C846.1 859.972 845.896 860.013 845.69 860.038L756.5 871L734.5 873L718.199 874.918C717.736 874.972 717.268 874.945 716.815 874.839L711.612 873.615C710.032 873.243 708.384 873.863 707.441 875.183L706.905 875.933C706.637 876.308 706.306 876.634 705.927 876.897L700 881L691.747 885.855C691.583 885.951 691.426 886.059 691.277 886.178C689.545 887.548 686.383 889.883 686 889.5C685.6 889.1 681.167 889.333 679 889.5H673.213C672.742 889.5 672.273 889.417 671.831 889.253L663 886L656.393 882.696C656.132 882.566 655.857 882.464 655.574 882.394L652.241 881.56C650.854 881.214 649.758 880.153 649.365 878.779L649 877.5L630 752L629.684 750.104C629.564 749.382 629.644 748.641 629.916 747.961L630.124 747.44C630.371 746.823 630.767 746.277 631.277 745.852L633.5 744L637.464 740.917C637.811 740.647 638.239 740.5 638.68 740.5V740.5C639.205 740.5 639.709 740.291 640.08 739.92L643.185 736.815C643.394 736.606 643.626 736.42 643.877 736.262L652.623 730.738C652.874 730.58 653.106 730.394 653.315 730.185L666.5 717L676.5 704L686.5 688.5L689 685M1256.5 669.5C1255.67 669 1254 667.9 1254 667.5C1254 667 1254 664 1253.5 663C1253 662 1254 653.5 1253.5 652.5C1253.14 651.779 1253.29 649.919 1253.45 648.827C1253.48 648.609 1253.5 648.389 1253.5 648.169V647.657C1253.5 646.596 1253.97 645.601 1254.49 644.675C1254.78 644.158 1255 643.568 1255 643C1255 641.873 1257.06 638.893 1258.28 637.292C1258.42 637.097 1258.56 636.89 1258.67 636.673L1266 622.5L1267.5 620L1269.5 615.5L1270.91 611.27C1270.97 611.09 1271.04 610.915 1271.13 610.746C1272.5 608.003 1275 602.888 1275 602.5C1275 602.171 1275.45 600.688 1275.8 599.616C1275.93 599.207 1276 598.781 1276 598.351V596.992C1276 596.665 1275.96 596.34 1275.88 596.022L1275.08 592.811C1275.03 592.604 1274.96 592.401 1274.87 592.205L1273.5 589L1237.5 497L1236.21 493.986C1236.07 493.663 1235.97 493.324 1235.93 492.976L1235.59 490.613C1235.53 490.207 1235.53 489.794 1235.6 489.389L1236.5 484L1239 475.5L1242.86 463.923C1242.95 463.642 1243.01 463.351 1243.04 463.056L1243.5 458.5L1244.49 454M969.5 793H962.157C961.096 793 960.079 792.579 959.328 791.828L958.959 791.459C958.655 791.155 958.402 790.804 958.21 790.419L957.5 789M969.5 793L968.343 791.457C968.115 791.154 967.846 790.885 967.543 790.657L964 788C962.5 786.667 959.3 783.7 958.5 782.5C957.5 781 956.5 777.5 956.5 777C956.5 776.787 956.027 776.28 955.458 775.752C954.568 774.926 954 773.793 954 772.578C954 771.332 954 770.005 954 769.5C954 768.7 955.667 763.167 956.5 760.5C957.167 757.333 958.5 750.9 958.5 750.5C958.5 750 968 702 968 701.5C968 701.195 968.389 700.093 968.721 699.218C968.901 698.742 969 698.239 969 697.73C969 697.257 969 696.746 969 696.5C969 696.1 969.667 695.667 970 695.5L972.5 694L1150 604C1150.5 603.667 1151.6 603 1152 603C1152.4 603 1153.5 601.667 1154 601L1155.33 599.227C1155.44 599.076 1155.57 598.933 1155.7 598.799L1155.83 598.668C1156.27 598.229 1156.6 597.693 1156.8 597.104L1157.31 595.583C1157.43 595.196 1157.62 594.832 1157.86 594.502L1184.81 557.258C1184.94 557.086 1185.08 556.925 1185.23 556.775L1186.33 555.672C1187.08 554.921 1187.5 553.904 1187.5 552.843V551.821C1187.5 551.279 1187.39 550.743 1187.18 550.245L1186.12 547.777C1186.04 547.593 1185.95 547.414 1185.84 547.244L1177.17 533.274C1177.06 533.092 1176.96 532.901 1176.88 532.703L1175.17 528.599C1174.74 527.579 1173.91 526.78 1172.88 526.392L1171.54 525.892C1170.86 525.636 1170.12 525.571 1169.4 525.706L1162.5 527L1118 541.5L1104.29 547.374C1104.1 547.458 1103.9 547.526 1103.69 547.578L1092.89 550.278C1092.3 550.424 1091.76 550.7 1091.3 551.086L1089 553L1083.97 556.657C1083.66 556.885 1083.38 557.156 1083.15 557.463L1077.18 565.268C1077.06 565.422 1076.93 565.568 1076.79 565.704L1058 584L1048.12 592.937C1047.71 593.308 1047.23 593.59 1046.7 593.765L1040 596L1028.34 599.886C1028.11 599.962 1027.88 600.017 1027.64 600.051L1021.28 600.96C1021.09 600.987 1020.91 601 1020.72 601H1015.5M957.5 789L956.708 787.415C956.57 787.139 956.4 786.88 956.203 786.643L954 784C953.5 783.5 952.4 782.5 952 782.5C951.705 782.5 950.665 781.774 949.806 781.125C949.274 780.724 948.888 780.164 948.677 779.532V779.532C948.56 779.18 948.5 778.811 948.5 778.439V776L961 641.5V639.649C961 639.219 961.072 638.793 961.194 638.381C961.345 637.87 961.5 637.272 961.5 637C961.5 636.762 961.855 636.274 962.248 635.814C962.719 635.262 963.372 634.907 964.075 634.731L964.332 634.667C964.774 634.556 965.194 634.371 965.573 634.12L990.25 617.75M957.5 789L949 791L937.5 793.5L930.5 795L923.616 797.295C923.208 797.431 922.781 797.5 922.351 797.5H917.77C917.261 797.5 916.757 797.403 916.285 797.214L915.348 796.839C914.796 796.618 914.323 796.235 913.994 795.74V795.74C913.672 795.258 913.492 794.689 913.569 794.114C913.681 793.276 913.947 792.106 914.5 791C914.946 790.108 915.517 789.382 916.021 788.856C916.607 788.244 917.158 787.572 917.45 786.777L927.5 759.5L934 734.5L938.5 721.5L939.405 717.429C939.468 717.144 939.5 716.853 939.5 716.561V708.5V693V666.5V657.503C939.5 656.534 939.148 655.598 938.51 654.869L937.267 653.447C936.466 652.533 935.293 652.031 934.079 652.085L922 652.622M1015.5 601L1036 584L1038 582M1015.5 601L990.25 617.75M1218 410L1244.49 454M1242.5 344L1244.49 454M990.25 617.75L830 623H825.5H823.062C822.366 623 821.682 623.182 821.078 623.527L818.965 624.734C818.656 624.911 818.373 625.127 818.121 625.379L816 627.5L794.677 655.765C794.559 655.921 794.453 656.086 794.359 656.258L791.932 660.708C791.661 661.204 791.651 661.802 791.904 662.307V662.307C792.255 663.01 793.036 663.387 793.805 663.225L801.667 661.57C801.889 661.523 802.114 661.496 802.34 661.487L828.5 660.5L913.5 653L922 652.622M922 652.622L922.837 656.706C922.945 657.23 922.946 657.769 922.843 658.294C922.493 660.071 922 662.656 922 663C922 663.4 920.667 667.167 920 669L912.643 689.601C912.548 689.866 912.425 690.121 912.277 690.361L906.177 700.215C906.059 700.405 905.958 700.604 905.873 700.811L900.5 714C900 715.5 898.8 718.7 898 719.5C897.408 720.092 896.414 721.086 895.667 721.833C895.228 722.272 894.693 722.602 894.104 722.799L892.348 723.384C892.116 723.461 891.893 723.559 891.679 723.677L763.042 794.701C762.683 794.899 762.295 795.041 761.893 795.121L760 795.5M760 795.5L768.747 810.078C768.915 810.358 769.117 810.617 769.348 810.848L769.828 811.328C770.579 812.079 771.596 812.5 772.657 812.5H774.5L887.006 804.037C887.334 804.012 887.658 803.947 887.97 803.843L889.604 803.299C890.193 803.102 890.729 802.771 891.168 802.332L891.299 802.201C891.433 802.067 891.557 801.924 891.671 801.773L892.702 800.397C892.9 800.133 893.064 799.846 893.192 799.542L920 735.5C921.333 733.167 924 728.4 924 728C924 727.5 926 722.5 926 722C926 721.5 928 716 928.5 715.5C928.9 715.1 929.333 710.333 929.5 708V699.5V696.5M760 795.5L713.5 721.5L713.303 721.107C712.792 720.085 712.743 718.893 713.167 717.832L713.381 717.298C713.46 717.1 713.555 716.908 713.665 716.725L715 714.5L763.42 652.245C763.802 651.755 764.063 651.183 764.185 650.574L764.422 649.388C764.474 649.13 764.5 648.867 764.5 648.604V645V643.062C764.5 642.366 764.682 641.682 765.027 641.078L766.5 638.5L795.5 600.5L797.13 598.463C797.375 598.156 797.574 597.815 797.72 597.45L797.956 596.86C798.307 595.982 798.336 595.007 798.037 594.11L797.5 592.5L796.5 589L793.932 582M610 466L606 470.5L602.352 475.06C602.119 475.352 601.927 475.675 601.783 476.02L599.642 481.16C599.547 481.386 599.474 481.621 599.423 481.86L598 488.5L597 491.5L596.422 493.235C596.148 494.056 596.151 494.943 596.409 495.769C596.705 496.715 597 497.734 597 498C597 498.344 598.232 499.698 599.108 500.601C599.366 500.868 599.592 501.165 599.772 501.49L602 505.5L656 632L666.368 655.699C666.456 655.899 666.56 656.092 666.679 656.276L672.771 665.648C672.923 665.882 673.099 666.099 673.297 666.297L674.799 667.799C674.933 667.933 675.076 668.057 675.227 668.171L676.6 669.2C676.866 669.399 677.155 669.565 677.462 669.692L688.731 674.388C688.91 674.462 689.084 674.55 689.25 674.65L691.225 675.835C691.408 675.945 691.6 676.04 691.798 676.119L692.606 676.442C693.493 676.797 694.489 676.756 695.343 676.328V676.328C695.776 676.112 696.157 675.804 696.459 675.426L698 673.5L698.7 672.567C699.219 671.874 699.5 671.028 699.5 670.162V670.162C699.5 669.101 699.079 668.079 698.328 667.328L698.28 667.28C698.094 667.094 697.89 666.925 697.667 666.786C697.115 666.442 696.326 666 696 666C695.6 666 693.5 665.333 692.5 665L687.841 663.136C687.614 663.046 687.379 662.976 687.14 662.928L685 662.5C684 662.167 681.9 661.4 681.5 661C681.1 660.6 680.667 659.833 680.5 659.5L679 656.5L612 505.5L609.182 499.864C609.061 499.622 608.965 499.368 608.895 499.106L607.194 492.726C607.066 492.246 607.027 491.747 607.089 491.255C607.292 489.653 607.658 487.342 608 487C608.5 486.5 611 480 612 479C612.8 478.2 616.667 473.667 618.5 471.5L624.092 464.511C624.362 464.172 624.686 463.88 625.05 463.646L704.241 412.667C704.413 412.556 704.594 412.458 704.781 412.375C706.356 411.668 709.124 410.376 709.5 410C710 409.5 714.5 409.5 715.5 409.5C716.5 409.5 722.5 411.5 723.5 411.5C724.3 411.5 726.5 412.833 727.5 413.5L731.098 415.499C731.69 415.828 732.188 416.301 732.547 416.875L734.28 419.648C734.426 419.882 734.548 420.131 734.643 420.39L741.654 439.5M609 483.5L609.5 475.5V470.5L610 466.5M793.932 582L767.313 569.385C766.778 569.132 766.193 569 765.6 569H765.149C764.719 569 764.292 569.069 763.884 569.205L763 569.5M793.932 582L741.654 439.5M763 569.5L722.5 469L721.799 466.896C721.602 466.307 721.271 465.771 720.832 465.332L716.734 461.234C716.578 461.078 716.41 460.936 716.231 460.808L714.288 459.42C713.471 458.836 712.439 458.64 711.464 458.884V458.884C711.156 458.961 710.861 459.08 710.586 459.238L638 501L633.422 503.747C633.142 503.915 632.883 504.117 632.652 504.348L631.5 505.5M763 569.5L763.5 574.5V577.008C763.5 577.335 763.46 577.66 763.381 577.978L763.269 578.425C763.093 579.128 762.729 579.771 762.217 580.283L761.5 581L703.395 632.649C703.133 632.882 702.841 633.08 702.527 633.237L700 634.5L696.679 635.745C696.23 635.914 695.754 636 695.275 636H693L688.5 635.5H684.5M631.5 505.5V507.727C631.5 508.238 631.598 508.744 631.788 509.218L681.124 632.064C681.371 632.678 681.766 633.222 682.275 633.646L684.5 635.5M631.5 505.5L629.137 502.35C628.72 501.793 628.455 501.137 628.368 500.446L628.113 498.4C628.038 497.808 628.098 497.206 628.287 496.639L628.795 495.116C628.931 494.708 629.132 494.325 629.389 493.981L630.5 492.5L636.213 484.406C636.404 484.137 636.627 483.891 636.878 483.676L643.5 478L656 469L675 455L699.5 439.5L714.101 431.493C714.691 431.169 715.352 431 716.025 431H721.783C722.257 431 722.728 431.084 723.172 431.249L735.624 435.861C735.874 435.953 736.114 436.071 736.341 436.211L741.654 439.5M684.5 635.5L687.012 640.524C687.331 641.163 687.816 641.705 688.417 642.093L695.644 646.77C695.881 646.923 696.1 647.1 696.3 647.3L703.455 654.455C703.815 654.815 704.24 655.103 704.708 655.303L707.5 656.5V656.5C708.199 656.85 708.96 656.15 708.67 655.424L708.568 655.171C708.523 655.058 708.5 654.938 708.5 654.816V650.546C708.5 649.551 708.871 648.592 709.54 647.856L713.5 643.5L751 611L763.251 601.689C763.417 601.563 763.592 601.45 763.775 601.352L770 598L782 591.5L787.5 587.5L789.277 586.316C790.066 585.789 790.643 584.999 790.904 584.086L791.5 582M642.5 746L641.669 749.741C641.557 750.242 641.543 750.76 641.628 751.267L642 753.5L642.928 758.604C642.976 758.867 643.05 759.125 643.15 759.374L643.695 760.738C643.896 761.241 644.198 761.698 644.581 762.081L645.129 762.629C645.375 762.875 645.588 763.153 645.763 763.454L704.067 864.251C704.352 864.745 704.74 865.172 705.204 865.503L706.957 866.755C707.635 867.24 708.448 867.5 709.282 867.5H713.5M713.5 867.5H718.843C719.904 867.5 720.921 867.079 721.672 866.328L722.708 865.292C722.902 865.098 723.076 864.884 723.226 864.655L750.5 823L752.341 819.779C752.447 819.593 752.538 819.399 752.613 819.199L753.745 816.179C753.914 815.73 754 815.254 754 814.775V811.444C754 810.823 753.855 810.211 753.578 809.655L752.72 807.94C752.574 807.648 752.392 807.374 752.18 807.126L749.696 804.228C749.565 804.076 749.447 803.915 749.341 803.745L748.25 802M713.5 867.5V864.5V862.165C713.5 861.404 713.282 860.66 712.878 860.015C711.659 858.068 710 855.337 710 855C710 854.621 704.602 844.615 701.486 838.892C701.166 838.305 701 837.65 701 836.98C701 836.031 701 834.909 701 834.5C701 834.054 701.199 832.365 701.366 831.038C701.452 830.357 701.716 829.712 702.128 829.163L702.72 828.374C702.906 828.125 703.12 827.9 703.359 827.701L708.686 823.261C708.895 823.088 709.121 822.935 709.36 822.807L748.25 802M647.5 764.5L648.838 760.931C648.946 760.645 649.086 760.371 649.255 760.117L650.556 758.166C650.849 757.726 651.226 757.349 651.666 757.056L654 755.5L691.5 729L694.369 726.49C695.098 725.852 696.034 725.5 697.003 725.5H697.5H698.078C699.293 725.5 700.442 726.052 701.201 727.001L702 728L748.25 802" stroke="black" stroke-width="2" stroke-linecap="round"/>
<path d="M485 72.5V71.4031C485 70.4948 485.309 69.6136 485.877 68.9043L486.451 68.186C486.813 67.7341 487.268 67.3659 487.786 67.1071L491 65.5L499 61.5L517.5 54.5L553 39L578 27.5L599.5 20L613.5 13.5L632.5 7L643.594 3.62372C643.864 3.54147 644.125 3.43083 644.371 3.29365L648.5 1" stroke="black" stroke-width="2" stroke-linecap="round"/>
<path d="M452 65L454.041 62.959C454.345 62.655 454.696 62.402 455.081 62.2097L460.5 59.5L474.5 53L602.118 5.64192C602.372 5.54755 602.616 5.42756 602.846 5.2838L606.5 3L609 1.5" stroke="black" stroke-width="2" stroke-linecap="round"/>
<path d="M334.5 136L336.5 132L338 128L339.31 125.379C339.436 125.127 339.589 124.889 339.765 124.669L341.278 122.778C341.426 122.593 341.59 122.422 341.767 122.266L345.044 119.399C345.346 119.134 345.687 118.917 346.054 118.754L349.689 117.138C349.896 117.046 350.095 116.937 350.283 116.811L353 115L368 107.5M368 107.5L370.5 106L374.107 104.196C374.368 104.066 374.643 103.964 374.926 103.894L376.708 103.448C377.845 103.164 379.049 103.392 380.003 104.074L381.496 105.14C381.83 105.379 382.125 105.667 382.371 105.995L383.5 107.5M368 107.5L368.5 105.5L369 101V91V88.6353C369 87.5882 369.416 86.5841 370.156 85.8437V85.8437C370.385 85.6154 370.64 85.416 370.917 85.2499L373 84L392 74.5L400 71.5L409.5 68L415.11 66.1299C415.369 66.0435 415.637 65.9839 415.908 65.952L424 65L431.5 64.5H440.5L447.5 65H449.679C450.221 65 450.757 65.11 451.255 65.3234L453.73 66.3842C453.91 66.4613 454.084 66.5515 454.25 66.6541L458.5 69.2692M383.5 107.5L389 114.5L402 129.5L430 163.5L455 193M383.5 107.5L377.5 112L372.879 115.235C372.627 115.411 372.356 115.556 372.073 115.676C370.309 116.422 367.368 117.895 367 119C366.6 120.2 365.833 121.833 365.5 122.5L363.976 126.69C363.668 127.538 363.655 128.466 363.941 129.322L364.261 130.284C364.419 130.757 364.665 131.195 364.978 131.583C365.846 132.657 367 134.167 367 134.5C367 134.9 372.333 141 375 144L396 167.5L404 179L407.5 184L410.28 188.17C410.426 188.39 410.594 188.594 410.78 188.78L412.799 190.799C412.933 190.933 413.076 191.057 413.227 191.171L417 194L424.698 198.33C424.899 198.443 425.11 198.539 425.327 198.616L433.5 201.5L440.143 203.398C440.38 203.466 440.611 203.556 440.833 203.666L442.5 204.5M356 163.5L359.683 159.817C359.893 159.607 360.068 159.365 360.2 159.099V159.099C360.687 158.126 360.557 156.958 359.868 156.116L352 146.5L350.894 144.841C350.512 144.268 350.923 143.5 351.611 143.5V143.5C351.859 143.5 352.094 143.606 352.257 143.791L363.5 156.5L410.755 209.724C410.918 209.908 411.097 210.076 411.291 210.225C412.868 211.442 415.624 213.5 416 213.5C416.314 213.5 418.696 214.729 420.594 215.742C421.499 216.225 422.553 216.353 423.544 216.088L428.632 214.731C429.204 214.579 429.734 214.302 430.185 213.92L435.634 209.31C435.877 209.104 436.144 208.928 436.429 208.786L439 207.5L442.5 205.5M479.5 193.5L450.5 162L431 137L403.5 105L397.5 99.5L395.141 97.1414C394.411 96.4106 394 95.4194 394 94.3859V94.3859C394 94.1292 394.025 93.8733 394.076 93.6216L394.223 92.8845C394.402 91.9886 394.883 91.181 395.585 90.5961L397.092 89.3401C397.363 89.1143 397.662 88.9254 397.983 88.7782L415.7 80.6376C415.9 80.546 416.106 80.471 416.318 80.4133L432.5 76L442.5 73L452.664 71.064C452.888 71.0214 453.107 70.9598 453.32 70.8799L456.613 69.6453C456.87 69.5487 457.137 69.4789 457.409 69.4371L458.5 69.2692M557.5 188.5L560.108 185.457C560.368 185.154 560.672 184.892 561.009 184.678L570 179L604.552 160.021C605.173 159.68 605.692 159.18 606.056 158.573L607.37 156.383C608.074 155.21 608.13 153.759 607.518 152.536L605.5 148.5L601.654 140.327C601.552 140.11 601.43 139.901 601.29 139.706L594.283 129.896C594.095 129.633 593.876 129.394 593.631 129.184L590.5 126.5L581.306 119.242C581.103 119.081 580.884 118.94 580.653 118.822L561.5 109L487.5 74.5L478 71.5L468.859 68.3006C468.293 68.1027 467.691 68.0343 467.096 68.1005L463.5 68.5L458.5 69.2692" stroke="black" stroke-width="2" stroke-linecap="round"/>
<path d="M436.5 246.5V244.896C436.5 244.633 436.474 244.37 436.422 244.112L436.238 243.188C436.083 242.413 435.702 241.702 435.144 241.144L432.5 238.5L423.78 229.78C423.594 229.594 423.426 229.39 423.28 229.17L421.939 227.158C421.649 226.724 421.447 226.236 421.345 225.724L421.157 224.784C421.054 224.268 421.066 223.735 421.194 223.224V223.224C421.392 222.432 421.857 221.733 422.51 221.243L423.5 220.5L426 219L436.152 213.199C436.383 213.067 436.601 212.912 436.802 212.736L444.024 206.417C444.339 206.141 444.696 205.916 445.082 205.751L448 204.5L465.429 199.175C465.807 199.059 466.201 199 466.597 199H471.325C472.092 199 472.843 198.779 473.488 198.365L479.5 194.5L486 191.5L494.73 186.65C494.91 186.55 495.097 186.464 495.29 186.393L503.917 183.215C504.303 183.072 504.665 182.871 504.99 182.619L508.776 179.675C508.925 179.558 509.082 179.453 509.247 179.359L511.578 178.027C512.182 177.682 512.866 177.5 513.562 177.5H514.789C515.579 177.5 516.347 177.739 517.023 178.147C518.087 178.79 519.416 179.5 520 179.5C520.612 179.5 521.846 180.084 522.766 180.583C523.256 180.848 523.785 181.036 524.338 181.105L531.5 182L535.409 182.869C535.801 182.956 536.177 183.101 536.526 183.3L539.5 185L544.211 187.141C544.731 187.378 545.295 187.5 545.866 187.5H550.894C551.296 187.5 551.695 187.561 552.079 187.68L566 192L589 201.5L604.235 207.889C604.411 207.963 604.582 208.049 604.746 208.148L607 209.5L624.5 220.5L635.5 228.5L659 246.5L666 252.5L669.799 256.299C669.933 256.433 670.057 256.576 670.171 256.727L671.5 258.5M671.5 258.5L673.948 259.899C674.634 260.291 675.188 260.877 675.542 261.583L675.759 262.018C676.233 262.967 676.312 264.065 675.976 265.072L675.395 266.815C675.138 267.586 674.651 268.262 674 268.75L671 271C662.667 277.333 645.9 290.1 645.5 290.5C645.1 290.9 642 293.667 640.5 295L635.5 299L631.275 301.816C631.092 301.939 630.919 302.076 630.758 302.226L623 309.5L619.5 313L611.5 319.5L604.5 327L600.764 331.67C600.588 331.889 600.39 332.09 600.173 332.267L595 336.5L591.755 338.818C591.585 338.939 591.406 339.047 591.219 339.14L589.5 340L589.107 340.197C588.085 340.708 586.893 340.757 585.832 340.333L585 340L583.971 339.485C583.376 339.188 583 338.58 583 337.915V337.915C583 337.642 583.063 337.373 583.185 337.129L584.21 335.081C584.402 334.696 584.655 334.345 584.959 334.041L586.5 332.5L614 306.5L622.799 297.701C622.933 297.567 623.076 297.443 623.227 297.329L629 293L638.5 285.5L650.703 277.69C650.9 277.564 651.087 277.42 651.259 277.26L664 265.5L666.72 262.78C666.906 262.594 667.11 262.426 667.33 262.28L669.43 260.88C669.807 260.629 670.139 260.315 670.411 259.952L671.5 258.5Z" stroke="black" stroke-width="2" stroke-linecap="round"/>
<path d="M486.5 264L478.742 256.726C478.581 256.576 478.408 256.439 478.225 256.316L477.531 255.854C477.179 255.62 476.871 255.327 476.617 254.99V254.99C475.914 254.052 474.81 253.5 473.638 253.5H473.5H472.649C472.219 253.5 471.792 253.569 471.384 253.705L469 254.5L465.426 255.394C465.143 255.464 464.868 255.566 464.607 255.696L457 259.5" stroke="black" stroke-width="2" stroke-linecap="round"/>
<path d="M551.5 318H554.492C555.153 318 555.805 317.836 556.388 317.522L561.736 314.642C561.912 314.547 562.08 314.44 562.24 314.32L564.902 312.323C565.614 311.79 566.127 311.034 566.361 310.176L568.918 300.801C568.973 300.601 569.012 300.396 569.034 300.19L570.5 287V280.5V278.725C570.5 278.246 570.414 277.77 570.245 277.321L569.304 274.811C569.104 274.277 568.791 273.791 568.387 273.387L561 266L548 256L541 250L526.5 239.5L518.356 234.23C518.119 234.077 517.9 233.9 517.7 233.7L514.498 230.498C514.169 230.169 513.784 229.899 513.361 229.702L506.5 226.5L501.83 223.698C501.61 223.566 501.379 223.456 501.139 223.369L496 221.5L492 220.5C490.667 220.167 487.9 219.5 487.5 219.5C487.1 219.5 481.667 219.167 479 219L473.814 218.529C473.605 218.51 473.395 218.507 473.186 218.521L466 219L461 219.5L448 220L442.962 220.458C442.655 220.486 442.352 220.549 442.06 220.647L439.876 221.375C439.626 221.458 439.368 221.516 439.107 221.549L435.5 222L433.5 222.5" stroke="black" stroke-width="2" stroke-linecap="round"/>
<path d="M509 379.5L523.7 343.731C523.898 343.248 524 342.732 524 342.21V339.5V335" stroke="black" stroke-width="2" stroke-linecap="round"/>
<path d="M495 378L496.245 377.067C496.741 376.694 497.145 376.211 497.422 375.655L498.373 373.754C498.458 373.585 498.53 373.41 498.59 373.23L499.078 371.765C499.352 370.944 499.352 370.056 499.078 369.235L498.5 367.5" stroke="black" stroke-width="2" stroke-linecap="round"/>
<path d="M458 352.5L454.5 340.5L453.554 334.827C453.518 334.609 453.5 334.389 453.5 334.169V329.687C453.5 329.232 453.577 328.781 453.729 328.353L465 296.5L476 272.5L478.891 267.13C479.266 266.434 479.993 266 480.784 266V266C481.249 266 481.701 266.151 482.073 266.43L482.495 266.747C483.147 267.235 483.621 267.924 483.845 268.707L484.085 269.546C484.352 270.483 484.269 271.485 483.85 272.365L479.5 281.5L470.5 304.5L468.091 314.135C468.031 314.378 467.947 314.614 467.842 314.841L465.368 320.202C465.126 320.728 465 321.3 465 321.879V325.65C465 325.883 465.02 326.115 465.061 326.345L466.5 334.5L469.418 344.714C469.473 344.904 469.541 345.09 469.623 345.271L471.604 349.629C471.864 350.202 472.256 350.705 472.747 351.098L479.5 356.5M479.5 356.5L482.963 357.799C483.319 357.932 483.654 358.116 483.959 358.344L494.433 366.2C495.126 366.719 495.968 367 496.833 367H497.892C498.617 367 499.328 366.803 499.95 366.43L500.451 366.13C501.135 365.719 501.68 365.114 502.017 364.391L504.698 358.647C504.898 358.219 505.02 357.759 505.059 357.288L505.45 352.597C505.483 352.201 505.575 351.813 505.723 351.444L507.328 347.429C507.442 347.144 507.589 346.873 507.765 346.621L510.6 342.572C510.865 342.193 511.193 341.864 511.57 341.598L519.139 336.255C519.379 336.085 519.637 335.943 519.908 335.83L525.5 333.5L537.727 327.631C537.909 327.544 538.084 327.443 538.25 327.33L548.505 320.338C548.833 320.114 549.126 319.842 549.375 319.532L549.71 319.112C550.519 318.101 550.789 316.76 550.433 315.515L550.272 314.953C550.093 314.327 550.07 313.667 550.204 313.03L552 304.5L553.5 296.5L554.206 294.03C554.399 293.355 554.41 292.642 554.24 291.961L553.719 289.876C553.575 289.299 553.304 288.762 552.926 288.303L546.5 280.5L539.5 272.5L524.5 258L522.648 255.777C522.223 255.267 521.677 254.871 521.06 254.624L520.215 254.286C519.743 254.097 519.239 254 518.73 254H518.06C517.689 254 517.319 254.052 516.961 254.154L514 255L503.517 257.859C503.174 257.953 502.82 258 502.464 258H498.944C498.323 258 497.711 258.145 497.155 258.422L493 260.5L488.857 262.986C488.294 263.323 487.823 263.794 487.486 264.357L486.758 265.571C486.587 265.856 486.452 266.161 486.356 266.479L485.609 268.968C485.251 270.163 485.749 271.449 486.819 272.091V272.091C487.264 272.358 487.623 272.746 487.855 273.21L488 273.5M479.5 356.5L481.259 351.662C481.418 351.224 481.5 350.762 481.5 350.295V349.337C481.5 348.785 481.386 348.239 481.165 347.733L478 340.5L475.5 335L474.5 332L474.122 330.109C474.041 329.705 474.023 329.292 474.069 328.883L474.5 325L478 311L481.5 298.5L488 273.5M488 273.5L489.008 271.819C489.33 271.283 489.5 270.665 489.5 270.04V270.04C489.5 269.365 489.7 268.701 490.074 268.139V268.139C490.354 267.718 490.725 267.365 491.159 267.105L493 266L494.807 265.096C495.582 264.709 496.209 264.082 496.596 263.307L496.804 262.893C496.934 262.632 497.036 262.357 497.106 262.074L497.5 260.5L498 258.5" stroke="black" stroke-width="2" stroke-linecap="round"/>
<path d="M441.5 360C441.881 360 449.261 356.062 453.414 353.817C453.804 353.606 454.223 353.463 454.66 353.39L456.342 353.11C456.778 353.037 457.222 353.037 457.658 353.11L458.972 353.329C459.646 353.441 460.28 353.724 460.814 354.151L462.185 355.248C462.394 355.415 462.587 355.604 462.759 355.81L465 358.5" stroke="black" stroke-width="2" stroke-linecap="round"/>
<path d="M423 431.5L435 424.28M445 367L447.184 363.723C447.711 362.934 448.501 362.357 449.414 362.096L451.5 361.5L456.667 360.561C456.889 360.52 457.106 360.461 457.318 360.384L461.838 358.741C462.276 358.582 462.738 358.5 463.205 358.5H464.808C465.586 358.5 466.347 358.727 466.997 359.152L491.653 375.273C491.884 375.424 492.098 375.598 492.293 375.793L493.328 376.828C494.079 377.579 494.5 378.596 494.5 379.657V380.351C494.5 380.781 494.431 381.208 494.295 381.616L492.374 387.379C492.13 388.111 491.68 388.756 491.078 389.238L484.5 394.5L435 424.28M445 367L439.346 375.48C439.117 375.825 438.942 376.203 438.828 376.6L436.094 386.169C436.032 386.389 435.95 386.604 435.851 386.81L429 401L426 410L424.18 415.005C424.061 415.332 424 415.678 424 416.027V416.027C424 417.224 424.713 418.306 425.813 418.777L427.5 419.5L432.5 422.5L435 424.28M445 367L446.366 368.025C446.783 368.337 447.121 368.743 447.354 369.209V369.209C447.767 370.033 447.822 370.991 447.507 371.857L446 376L442.5 383L435 402L429 419.5" stroke="black" stroke-width="2" stroke-linecap="round"/>
<path d="M286.5 79.5L289.59 81.7071C289.862 81.9016 290.109 82.1295 290.325 82.3855L298 91.5L330.5 133L332.112 135.015C332.369 135.336 332.674 135.616 333.017 135.844L333.447 136.131C333.813 136.375 334.137 136.678 334.404 137.028L358.038 167.897C358.343 168.296 358.571 168.748 358.709 169.23L359.325 171.389C359.441 171.794 359.492 172.214 359.476 172.635L358.5 199" stroke="black" stroke-width="2" stroke-linecap="round"/>
<path d="M287 103L282.028 7.04255C282.009 6.68251 281.942 6.32663 281.828 5.98461L281 3.5L280 1" stroke="black" stroke-width="2" stroke-linecap="round"/>
<path d="M426 342.5L378.5 280" stroke="black" stroke-width="2" stroke-linecap="round"/>
<path d="M371 293.5L373 293L373.198 292.934C374.042 292.653 374.768 292.098 375.261 291.358L375.296 291.306C375.432 291.102 375.548 290.887 375.645 290.662L376.767 288.045C376.921 287.684 377.022 287.301 377.065 286.911L377.5 283L379 260.5" stroke="black" stroke-width="2" stroke-linecap="round"/>
<path d="M360.5 310.5L400 358.5L401.328 360.492C401.766 361.149 402 361.921 402 362.711V371.5L402.919 386.658C402.971 387.529 402.738 388.393 402.254 389.119L400.38 391.93C400.129 392.307 399.815 392.639 399.452 392.911L398 394" stroke="black" stroke-width="2" stroke-linecap="round"/>
<path d="M337 364.5L353.338 343.837C353.772 343.289 354.341 342.863 354.99 342.604L355.785 342.286C356.257 342.097 356.761 342 357.27 342H358.072C358.996 342 359.89 342.319 360.605 342.904L365 346.5L378.118 359.132C378.371 359.376 378.592 359.653 378.773 359.955L382.539 366.232C382.843 366.738 383.03 367.304 383.089 367.892L384.5 382V387.5" stroke="black" stroke-width="2" stroke-linecap="round"/>
<path d="M188.5 411.5L155.405 354.201C155.138 353.738 154.966 353.227 154.9 352.697L154.622 350.478C154.542 349.836 154.619 349.183 154.846 348.577L156 345.5L188 261.5L238.5 130.5L239.2 128.4C239.389 127.833 239.833 127.389 240.4 127.2V127.2C240.789 127.07 241.211 127.07 241.6 127.2L242.009 127.336C242.334 127.445 242.64 127.605 242.914 127.811L243.952 128.589C244.315 128.861 244.629 129.193 244.88 129.57L245.28 130.17C245.426 130.39 245.594 130.594 245.78 130.78L248.5 133.5L358.012 272.381C358.334 272.79 358.574 273.258 358.717 273.758L359.5 276.5L359.762 277.812C359.917 278.587 360.298 279.298 360.856 279.856L363.652 282.652C363.883 282.883 364.084 283.142 364.259 283.419C364.812 284.292 365.659 285.5 366 285.5C366.4 285.5 367.5 286.833 368 287.5L370.113 290.881C370.369 291.29 370.549 291.743 370.643 292.216L370.731 292.654C370.905 293.526 370.784 294.432 370.386 295.228L369.205 297.591C369.069 297.863 368.902 298.118 368.708 298.352L321 356" stroke="black" stroke-width="2" stroke-linecap="round"/>
<path d="M191 21V21C191.649 21 192.281 21.2105 192.8 21.6L193.773 22.3294C193.924 22.443 194.067 22.5672 194.201 22.701L195.5 24L244 82.5L248 88L250.629 92.8206C250.874 93.2694 251.031 93.7609 251.09 94.2686L251.948 101.557C251.983 101.852 251.984 102.149 251.953 102.443L251.048 111.042C251.016 111.346 251.019 111.653 251.057 111.957L251.867 118.437C251.954 119.133 252.223 119.795 252.647 120.354L266 138L367 266.5L369.364 268.864C369.771 269.271 370.323 269.5 370.899 269.5V269.5C371.292 269.5 371.678 269.393 372.015 269.191L372.321 269.007C373.363 268.382 374 267.257 374 266.042V265.06C374 264.689 374.052 264.319 374.154 263.961L374.588 262.442C374.832 261.589 375.612 261 376.5 261V261H376.882C377.874 261 378.78 260.44 379.224 259.553V259.553C379.405 259.189 379.5 258.788 379.5 258.382V246.69C379.5 245.914 379.274 245.154 378.849 244.503L364.345 222.294C363.801 221.462 363.587 220.456 363.745 219.473L369.937 180.896C369.979 180.633 370.047 180.374 370.141 180.125L371.237 177.201C371.405 176.755 371.752 176.399 372.195 176.222V176.222C373.15 175.84 374.222 176.388 374.471 177.386L374.828 178.812C374.941 179.264 375.159 179.684 375.464 180.037L413 223.5L427.274 242.203C427.424 242.401 427.593 242.584 427.777 242.75L431.359 245.973C432.094 246.634 433.047 247 434.035 247H439.44C439.811 247 440.181 247.052 440.539 247.154L446.461 248.846C446.819 248.948 447.189 249 447.56 249H448.941C450.501 249 451.919 249.907 452.573 251.324L454.5 255.5L462.298 271.556C462.749 272.483 462.824 273.548 462.508 274.528L444.594 330.209C444.531 330.403 444.454 330.591 444.363 330.773L442.662 334.177C442.235 335.031 442.127 336.009 442.359 336.936L444.381 345.022C444.46 345.34 444.5 345.665 444.5 345.992V352.056C444.5 352.677 444.355 353.289 444.078 353.845L442.29 357.419C442.098 357.804 441.845 358.155 441.541 358.459L437.5 362.5L432.978 367.475C432.662 367.822 432.409 368.223 432.232 368.658L415 411" stroke="black" stroke-width="2" stroke-linecap="round"/>
<path d="M139 109.5L139.304 108.893C139.434 108.632 139.536 108.357 139.606 108.074L139.837 107.153C139.945 106.721 140.124 106.31 140.368 105.936L162.85 71.4965C163.274 70.8462 163.5 70.0865 163.5 69.31V68.3311C163.5 68.1107 163.482 67.8908 163.446 67.6735L163 65" stroke="black" stroke-width="2" stroke-linecap="round"/>
<path d="M115.5 151L115.081 147.644C115.027 147.217 115.043 146.785 115.127 146.363L115.349 145.253C115.449 144.756 115.642 144.281 115.919 143.856L136 113L137.334 110.776C137.443 110.596 137.6 110.45 137.788 110.356V110.356C138.213 110.143 138.727 110.227 139.063 110.563L139.717 111.217C139.904 111.404 140.059 111.622 140.175 111.86L149 130L170 175.5L171.5 179.5L172.214 181.285C172.403 181.757 172.5 182.261 172.5 182.77V189L170.057 223.206C170.019 223.73 170.086 224.257 170.252 224.756L171.385 228.155C171.462 228.385 171.559 228.607 171.675 228.818L177 238.5L182 246L183.31 248.621C183.436 248.873 183.589 249.111 183.765 249.331L185.5 251.5" stroke="black" stroke-width="2" stroke-linecap="round"/>
<path d="M190 27L192.5 30L203.5 40.5L207.5 45.5L221.5 62L242.677 86.6241C242.891 86.8738 243.074 87.1489 243.222 87.4434L244.078 89.1554C244.355 89.7108 244.5 90.3233 244.5 90.9443V93.7516C244.5 94.2463 244.408 94.7366 244.229 95.1977L225.5 143.5L186.803 250.164C186.603 250.715 186.285 251.215 185.871 251.629L183.081 254.419C182.698 254.802 182.241 255.104 181.738 255.305L180 256" stroke="black" stroke-width="2" stroke-linecap="round"/>
<path d="M190 26L190.341 22.5874C190.443 21.5682 190.15 20.5487 189.523 19.7391L175 1" stroke="black" stroke-width="2" stroke-linecap="round"/>
<path d="M176.5 422.5L147.358 358.288C147.122 357.769 147 357.205 147 356.635V355V352.219C147 351.743 147.085 351.272 147.25 350.826L179.25 264.674C179.415 264.228 179.5 263.757 179.5 263.281V259.5V258.589C179.5 257.876 179.309 257.176 178.948 256.561L119.645 155.747C119.549 155.583 119.44 155.425 119.321 155.276L117.5 153L117.163 152.494C116.765 151.898 116.036 151.616 115.341 151.79V151.79C114.813 151.922 114.38 152.299 114.178 152.805L113.762 153.845C113.589 154.278 113.339 154.677 113.024 155.021L103.211 165.769C103.071 165.923 102.918 166.065 102.756 166.195L101.596 167.123C100.886 167.691 100.005 168 99.0969 168H98.5H96.9443C96.3233 168 95.7108 167.855 95.1554 167.578L94.8446 167.422C94.2892 167.145 93.806 166.741 93.4334 166.245L92.5 165L36.2661 94.832C36.0892 94.6113 35.9362 94.3724 35.8097 94.1194L34.5 91.5L33.7861 89.7152C33.5971 89.2428 33.5 88.7385 33.5 88.2297V86.5V81L34 70L36 49L39 23.5L39.9995 17.1698C40.2852 15.3601 39.176 13.6217 37.4144 13.1184V13.1184C37.1391 13.0397 36.8554 12.994 36.5694 12.9821L13.3711 12.0155C13.1242 12.0052 12.8789 11.972 12.6381 11.9165L7.87439 10.8172C6.98497 10.6119 6.1925 10.1086 5.62856 9.39089L1.85473 4.58783C1.301 3.88309 1 3.0128 1 2.11655V1" stroke="black" stroke-width="2" stroke-linecap="round"/>
<path d="M250 506.5H250.604C250.867 506.5 251.13 506.474 251.388 506.422L253.112 506.078C253.37 506.026 253.633 506 253.896 506H261.5H266L270.5 506.5L277 507.5L286 508.5L296.529 510.414C296.842 510.471 297.147 510.565 297.438 510.695L306 514.5L325.086 521.841C325.361 521.947 325.624 522.082 325.869 522.246L334.241 527.827C334.413 527.942 334.595 528.044 334.783 528.131L340.642 530.835C340.88 530.945 341.107 531.078 341.319 531.232L346.5 535V535C347.278 535.518 348.335 535.199 348.695 534.337L361.873 502.805C361.957 502.602 362.025 502.392 362.076 502.179L364 494L366 488.5L368.5 482L370.347 474.614C370.448 474.207 370.613 473.819 370.835 473.464L373 470L375.246 466.856C375.415 466.619 375.609 466.402 375.825 466.208L380.5 462L387.5 456L394.5 451L421.5 433V433C422.922 432.289 423.156 430.357 421.944 429.328L414.793 423.249C414.598 423.083 414.42 422.9 414.26 422.7L413.377 421.596C412.809 420.886 412.5 420.005 412.5 419.097V416.608C412.5 415.883 412.697 415.172 413.07 414.55L414 413V413C414.549 412.177 414.314 411.063 413.479 410.532L409.5 408" stroke="black" stroke-width="2" stroke-linecap="round"/>
<path d="M239.5 503.5L235.2 505.411C235.068 505.47 234.948 505.552 234.845 505.655L234.707 505.793C234.574 505.926 234.5 506.105 234.5 506.293V506.595C234.5 506.819 234.681 507 234.905 507V507C234.967 507 235.029 507.015 235.085 507.043L235.421 507.21C235.797 507.399 236.224 507.463 236.639 507.394L239 507L249.5 506.5" stroke="black" stroke-width="2" stroke-linecap="round"/>
<path d="M407 399.5L410 401.5L410.5 403V405L409.5 407L406.5 408.5L239 503.5" stroke="black" stroke-width="2" stroke-linecap="round"/>
<path d="M128 479.5L116.589 504.306C116.53 504.434 116.449 504.551 116.349 504.651C116.126 504.874 116 505.178 116 505.494V505.637C116 505.876 116.056 506.111 116.162 506.325L116.25 506.5C116.414 506.829 116.5 507.191 116.5 507.559V508C116.5 508.654 116.68 509.295 117.021 509.854L141.251 549.592C141.416 549.863 141.613 550.113 141.838 550.338L142.105 550.605C142.367 550.867 142.584 551.169 142.75 551.5C142.916 551.831 143.133 552.133 143.395 552.395L143.541 552.541C143.845 552.845 144.098 553.196 144.29 553.581L145.107 555.214C145.366 555.732 145.734 556.187 146.186 556.549L148 558L199.5 606L200 606.5L200.146 606.646C200.373 606.873 200.68 607 201 607H201.5C201.82 607 202.127 606.873 202.354 606.646L202.807 606.193C202.935 606.065 203.051 605.924 203.151 605.773L204 604.5L211.5 596L214.269 591.847C214.423 591.616 214.552 591.37 214.655 591.113L215.364 589.341C215.454 589.114 215.524 588.879 215.572 588.64L215.922 586.888C215.974 586.63 216 586.367 216 586.104V585V584.944C216 584.323 215.855 583.711 215.578 583.155L215 582L199.5 551L196.5 544.5L194 539.5L192.685 535.992C192.562 535.666 192.397 535.356 192.194 535.072L190.441 532.618C190.15 532.21 189.938 531.75 189.816 531.263L189.619 530.478C189.54 530.16 189.5 529.835 189.5 529.508V529.403C189.5 528.495 189.191 527.614 188.623 526.904L187.5 525.5L186 524L184 521.5L182.5 520L168.5 507.5L135.336 480.771C135.113 480.591 134.871 480.435 134.614 480.307L134.581 480.29C134.196 480.098 133.845 479.845 133.541 479.541L133.5 479.5L133.177 479.177C133.064 479.064 132.91 479 132.75 479C132.59 479 132.436 478.936 132.323 478.823L132.182 478.682C132.062 478.562 131.917 478.472 131.756 478.419L131.111 478.204C130.706 478.069 130.283 478 129.856 478H129.5C129.18 478 128.873 478.127 128.646 478.354L128.641 478.359C128.548 478.452 128.47 478.56 128.411 478.678L128 479.5Z" stroke="black" stroke-width="2"/>
<path d="M207 523L229 509.5" stroke="black" stroke-width="2" stroke-linecap="round"/>
<path d="M254.5 582.5L344.5 564" stroke="black" stroke-width="2" stroke-linecap="round"/>
<path d="M224.5 579L203 531.5" stroke="black" stroke-width="2" stroke-linecap="round"/>
<path d="M401 403.5L204 508L202 509.5L199.5 510.5L198 510L194 507.5L144.5 479.5L129.5 470.5L128 468.5L129 466L281.5 340L283 339.5L284 338.5H285.5L287 339.5L290.5 342L402.5 396.5L405.5 398L406 399L405.5 400L401 403.5Z" stroke="black" stroke-width="2" stroke-linecap="round"/>
<path d="M116 504L113 503.5L112 502.5L112.5 500.5L126.5 471L128 470.5" stroke="black" stroke-width="2" stroke-linecap="round"/>
<path d="M40 14.5L48.5 1" stroke="black" stroke-width="2" stroke-linecap="round"/>
<path d="M53.5 1L54.2336 3.56757C54.4087 4.18031 54.4348 4.82602 54.3098 5.45091L53.5 9.5L47.5 30.5L44.5 43L41.0571 63.1658C41.0191 63.3882 41 63.6134 41 63.839V70V75.4398C41 75.8114 41.0518 76.1813 41.1539 76.5387L42 79.5L43.3051 82.5451C43.4345 82.8472 43.6007 83.1322 43.7999 83.3936L91.2728 145.702C91.4239 145.9 91.5933 146.084 91.7787 146.251L96.5 150.5L96.9994 150.999C97.3286 151.329 97.7299 151.577 98.1716 151.724V151.724C98.7126 151.904 99.2939 151.927 99.8472 151.788L100.216 151.696C100.734 151.567 101.22 151.335 101.646 151.015L102.773 150.171C102.924 150.057 103.067 149.933 103.201 149.799L104.245 148.755C104.415 148.585 104.569 148.401 104.705 148.203L185.5 31.5L187.249 29.3135C187.415 29.1062 187.543 28.871 187.627 28.6191V28.6191C187.861 27.9182 187.735 27.1473 187.292 26.5563L186.5 25.5L166 1" stroke="black" stroke-width="2" stroke-linecap="round"/>
<path d="M42 68H42.7297C43.2385 68 43.7428 68.0971 44.2152 68.2861L45.0605 68.6242C45.6771 68.8708 46.2226 69.2672 46.6478 69.7774L47.8498 71.2197C48.2765 71.7318 48.5685 72.3424 48.6992 72.996L48.8008 73.504C48.9315 74.1576 49.2235 74.7682 49.6502 75.2803L51.5 77.5L59 88L96.6369 137.027C96.8776 137.341 97.0706 137.688 97.2094 138.058L97.8407 139.742C98.2373 140.799 99.2482 141.5 100.378 141.5V141.5C101.096 141.5 101.785 141.215 102.294 140.706L104 139L128 108L131.319 102.785C131.438 102.597 131.596 102.436 131.781 102.313V102.313C132.471 101.853 133.398 101.997 133.915 102.644L135 104" stroke="black" stroke-width="2" stroke-linecap="round"/>
<path d="M386.5 677.5L421.5 659M367 660L365.711 660.516C364.924 660.83 364.257 661.387 363.807 662.105L341.611 697.526C341.212 698.162 341 698.898 341 699.65V702V706.351C341 706.781 341.069 707.208 341.205 707.616L342.891 712.672C342.963 712.89 343.055 713.102 343.164 713.304L346.5 719.5L389.5 797.5L393.5 805L394.655 807.311C394.883 807.766 395.195 808.174 395.576 808.512L398.157 810.807C399.011 811.566 399.5 812.654 399.5 813.796V814.679C399.5 815.221 399.61 815.757 399.823 816.255L400.605 818.078C400.864 818.683 401.269 819.215 401.783 819.626L403.088 820.67C403.361 820.889 403.663 821.071 403.983 821.212L411.5 824.5L424.049 830.292C424.349 830.43 424.664 830.531 424.988 830.592L432.135 831.931C432.378 831.977 432.624 832 432.872 832H433.892C434.617 832 435.328 832.197 435.95 832.57L436.643 832.986C437.206 833.323 437.677 833.794 438.014 834.357L438.43 835.05C438.803 835.672 439 836.383 439 837.108V839.343C439 840.404 438.579 841.421 437.828 842.172L436.896 843.104C436.633 843.367 436.408 843.665 436.228 843.99L434 848M367 660L365.045 656.481C364.709 655.876 364.07 655.5 363.377 655.5V655.5C362.821 655.5 362.291 655.743 361.929 656.166L353.5 666L339.5 684.5L337.55 687.62C337.208 688.167 336.608 688.5 335.962 688.5V688.5C335.103 688.5 334.354 687.915 334.145 687.082L334.068 686.772C334.023 686.591 334 686.406 334 686.219V683V682.905C334 682.03 333.079 681.46 332.296 681.852V681.852C332.103 681.949 331.939 682.097 331.824 682.281L330.108 685.027C329.711 685.663 329.5 686.398 329.5 687.147V688.964C329.5 689.32 329.453 689.674 329.359 690.017L328.141 694.483C328.047 694.826 328 695.18 328 695.536V701V703.413C328 703.802 328.057 704.189 328.169 704.562L329.5 709L330.5 711.5L383.836 807.705C383.945 807.901 384.071 808.088 384.211 808.264L386 810.5L390.5 818L394.727 824.106C394.908 824.368 395.12 824.607 395.358 824.819L399.267 828.293C399.422 828.431 399.588 828.556 399.762 828.668L427.5 846.5L429.655 847.578C430.211 847.855 430.823 848 431.444 848H432.5H434M367 660L372.5 673.5L372.795 674.384C372.931 674.792 373 675.219 373 675.649V677.5M434 848L433.541 852.594C433.514 852.864 433.459 853.13 433.378 853.389L431.102 860.674C431.034 860.891 430.948 861.102 430.844 861.304L420.5 881.5L411 901L409.5 904M373 677.5L370 681.5L365 689.5C364 691.667 361.9 696.1 361.5 696.5C361.1 696.9 360.333 699.667 360 701L359.205 703.384C359.069 703.792 359 704.219 359 704.649V711.5V717C359 717.5 359 718.7 359 719.5C359 720.3 359.667 721.5 360 722L360.284 722.5M373 677.5L375.041 679.541C375.345 679.845 375.598 680.196 375.79 680.581L378.5 686L380.362 689.724C380.454 689.908 380.56 690.084 380.679 690.251L404.79 724.204C404.93 724.401 405.051 724.61 405.153 724.829L415.5 747L427.5 771L446 803L449.5 808L453.5 815.5L456 821L461.159 829.91C461.385 830.301 461.675 830.65 462.017 830.943L465 833.5L472.397 839.51C472.795 839.834 473.252 840.078 473.743 840.229L479.5 842L481.322 842.683C482.668 843.188 484.182 842.931 485.287 842.011L486.5 841M360.284 722.5L409.077 808.257C409.339 808.716 409.826 809 410.355 809V809C410.451 809 410.548 808.99 410.643 808.971L415.5 808L429.5 805V805C430.379 804.707 430.941 803.848 430.857 802.925L430.583 799.911C430.528 799.311 430.339 798.732 430.029 798.215L427.5 794L379.5 707.5L377.5 703.5L376.958 702.596C376.406 701.676 375.268 701.293 374.272 701.691V701.691C373.775 701.89 373.368 702.264 373.128 702.743L372.712 703.575C372.571 703.857 372.397 704.122 372.194 704.363L364.5 713.5L362.846 715.98C362.617 716.325 362.442 716.703 362.328 717.1L361.596 719.664C361.532 719.888 361.449 720.105 361.347 720.314L360.284 722.5ZM409.5 904L408.57 905.55C408.197 906.172 408 906.883 408 907.608V919.356C408 919.783 408.069 920.206 408.204 920.611V920.611C408.399 921.196 408.727 921.727 409.163 922.163L410 923L457.264 977.229C457.421 977.409 457.594 977.575 457.781 977.724L459.072 978.758C459.673 979.238 460.419 979.5 461.188 979.5V979.5C462.032 979.5 462.846 979.185 463.47 978.616L478.95 964.501C479.314 964.17 479.613 963.774 479.833 963.334L479.953 963.094C480.31 962.381 480.445 961.578 480.342 960.787L477.5 939M409.5 904L437.5 887.5L442.086 884.29C442.361 884.097 442.611 883.871 442.829 883.616L444.99 881.095C445.327 880.702 445.584 880.248 445.748 879.757L446.5 877.5L460.875 843.297C460.958 843.099 461.057 842.909 461.171 842.727L462.99 839.815C463.325 839.279 463.783 838.83 464.324 838.505L465.406 837.856C465.799 837.621 466.23 837.454 466.679 837.364L468.5 837M477.5 939L463 919.5L452.5 905L446.239 897.776C446.08 897.592 445.905 897.424 445.715 897.272L444.596 896.377C443.886 895.809 443.005 895.5 442.097 895.5H441.833C440.968 895.5 440.126 895.781 439.433 896.3L422.5 909L418.5 911.5M477.5 939L476.03 921.85C476.01 921.617 475.97 921.386 475.91 921.161L474.088 914.329C474.029 914.11 473.99 913.886 473.969 913.661L473.026 903.289C473.009 903.096 473.005 902.903 473.016 902.711L474 884.5L475.453 874.811C475.484 874.604 475.532 874.4 475.595 874.2L478.5 865L480.5 857L482 850L482.795 847.616C482.931 847.208 483 846.781 483 846.351V843M473 840.245L457.26 873.452C457.088 873.815 456.971 874.202 456.914 874.6L456.103 880.278C456.035 880.755 456.054 881.241 456.158 881.712L457 885.5M455.5 881L427.52 902.599C427.176 902.864 426.877 903.185 426.636 903.546L424 907.5M429.5 818L418.793 813.539C418.123 813.26 417.875 812.438 418.277 811.834V811.834C418.422 811.618 418.635 811.456 418.882 811.376L434.573 806.3C435.182 806.103 435.83 806.055 436.461 806.16L437.751 806.375C438.246 806.458 438.721 806.633 439.151 806.891L443.5 809.5L447.533 812.637C447.839 812.875 448.076 813.189 448.22 813.549V813.549C448.655 814.638 448.152 815.877 447.08 816.353L444.5 817.5L438.318 819.878C438.106 819.959 437.888 820.022 437.666 820.067L436.697 820.261C435.917 820.417 435.108 820.337 434.374 820.031L429.5 818Z" stroke="black" stroke-width="2" stroke-linecap="round"/>
<path d="M1131.5 842.5C1131.1 842.9 1122.33 852 1118 856.5M1156 866L1191.71 852.305C1192.23 852.104 1192.7 851.795 1193.1 851.398L1195 849.5L1199.65 844.387C1199.88 844.13 1200.08 843.844 1200.24 843.535L1310.55 630.365C1310.85 629.797 1311 629.166 1311 628.526V625.513C1311 625.172 1310.96 624.833 1310.87 624.503L1308.22 614.342C1308.07 613.787 1307.81 613.27 1307.45 612.825L1297 600L1294.5 596.5M823 623.5V607.345C823 607.116 823.02 606.886 823.059 606.66L825 595.5L829.5 581M1241.5 739.5L1299.5 625M1214.5 793.5L1177.26 773.638C1177.09 773.546 1176.92 773.439 1176.77 773.316V773.316C1175.49 772.289 1175.2 770.449 1176.11 769.081L1183.5 758L1223.92 699.072C1224.51 698.215 1225.69 698.02 1226.52 698.644V698.644C1226.83 698.875 1227.06 699.199 1227.17 699.568L1229 705.5L1232.38 720.461C1232.46 720.819 1232.59 721.163 1232.76 721.486L1238.86 732.741C1238.95 732.913 1239.06 733.079 1239.18 733.236L1240.5 735M1156 780.5L1158.82 784.937C1159.26 785.629 1159.91 786.169 1160.66 786.483L1204 804.5M910.5 827L962 793.5M969.5 790.5L991.327 774.009C991.771 773.673 992.28 773.434 992.822 773.307L1000.07 771.601C1000.36 771.534 1000.65 771.498 1000.94 771.495L1164 769.5" stroke="black" stroke-width="2" stroke-linecap="round"/>
<path d="M1252.5 270.5L1276.22 292.764C1276.73 293.246 1277.11 293.856 1277.31 294.531L1277.94 296.63C1278.29 297.81 1278.08 299.088 1277.37 300.093L1250.5 338M1252.5 336L1265.21 385.868C1265.4 386.607 1265.8 387.277 1266.35 387.799L1269 390.281M1426.5 521L1293.31 572.228C1291.42 572.954 1289.29 572.156 1288.34 570.369L1277 549L1272.63 538.086C1272.23 537.073 1272.26 535.938 1272.71 534.945L1277 525.5L1295.01 489.969C1295.33 489.334 1295.82 488.797 1296.41 488.413L1301.9 484.886C1302.3 484.631 1302.65 484.307 1302.93 483.931L1321.69 459.07C1322.22 458.375 1322.5 457.53 1322.5 456.66V453.919C1322.5 453.001 1322.18 452.111 1321.61 451.398L1281.5 402L1269 390.281M1269 390.281L1292 468.5M1249.5 627.5L1254.85 598.82C1254.95 598.279 1254.94 597.723 1254.81 597.187L1253.5 591.5L1218.59 475.79C1218.53 475.597 1218.49 475.4 1218.46 475.2L1217.65 469.532C1217.55 468.855 1217.63 468.165 1217.88 467.527L1231 433.5L1236.2 420.726C1236.4 420.246 1236.5 419.734 1236.5 419.216V359.5" stroke="black" stroke-width="2" stroke-linecap="round"/>
<path d="M762.5 393L766.843 399.756C766.948 399.918 767.04 400.088 767.12 400.264L794.134 459.694C794.375 460.225 794.729 460.697 795.172 461.076L797.253 462.86C797.744 463.28 798.299 463.568 798.927 463.717C831.229 471.415 908.554 502.836 967.903 569.329C968.295 569.768 968.781 570.12 969.322 570.352L971.662 571.355C971.887 571.452 972.102 571.568 972.306 571.704L972.556 571.871C973.173 572.282 973.893 572.514 974.634 572.54L1044.5 575" stroke="black" stroke-width="2" stroke-linecap="round"/>
<path d="M596 200.5L586.197 195.599C584.851 194.925 584 193.549 584 192.043V192.043C584 190.493 584.901 189.084 586.309 188.434L590.5 186.5L677 139L706.512 125.72C706.836 125.574 707.178 125.472 707.529 125.416L726 122.5L811.5 115.5H865.579C865.859 115.5 866.138 115.529 866.412 115.588L950.5 133.5L1011.57 153.857C1011.86 153.952 1012.13 154.079 1012.39 154.236L1055.5 180.5M617.5 204C622.5 206.333 632.6 211.1 633 211.5C633.363 211.863 640.334 215.269 644.737 217.392C645.554 217.786 646.482 217.889 647.366 217.685L651.955 216.626C652.316 216.542 652.665 216.409 652.99 216.229L671.203 206.164C671.4 206.055 671.607 205.963 671.821 205.888L704.5 194.5L736 183.5L772 174.5L790.633 171.558C790.877 171.519 791.124 171.504 791.371 171.511L808.5 172M663 230.5L683.5 245L686.63 247.191C687.789 248.002 689.29 248.141 690.579 247.555L699.5 243.5L720.891 234.468C721.614 234.163 722.412 234.077 723.184 234.222L728.784 235.272C729.576 235.421 730.305 235.805 730.875 236.375L736 241.5M766.5 202L771.543 192.831C771.843 192.285 772.268 191.816 772.782 191.463L779.633 186.752C779.877 186.585 780.139 186.445 780.414 186.335L786.785 183.786C787.257 183.597 787.761 183.5 788.27 183.5H791.669C791.889 183.5 792.109 183.518 792.327 183.554L801 185L881.927 209.824C882.307 209.941 882.702 210 883.1 210H887L975.5 200.5H982.556C983.177 200.5 983.789 200.645 984.345 200.922L988.073 202.787C988.357 202.928 988.622 203.103 988.865 203.308L1049.5 254.5" stroke="black" stroke-width="2" stroke-linecap="round"/>
</svg>
